<?xml version="1.0" encoding="UTF-8"?>
<svg id="Layer_2" data-name="Layer 2" xmlns="http://www.w3.org/2000/svg" viewBox="0 0 202.23 115.23">
  <defs>
    <style>
      .cls-1 {
        fill: #fff;
      }

      .cls-2 {
        fill: #101f6a;
      }

      .cls-3 {
        stroke-width: 4px;
      }

      .cls-3, .cls-4 {
        fill: none;
        stroke: #101f6a;
      }

      .cls-4 {
        stroke-width: 5px;
      }
    </style>
  </defs>
  <g id="Layer_1-2" data-name="Layer 1">
    <rect class="cls-1" width="202.23" height="115.23"/>
    <g>
      <path class="cls-2" d="m189.13,75.43l12.06-3.29-.09,5-11.97-1.71Z"/>
      <path class="cls-3" d="m2.05,77.8l49.8-21.3,44.5-10m.1,0s26.6,2.7,46.6,5m-46.6-5l-8.4-16.7,13-12.1,5,5L124.55,3.5l64.7,71.3-27.7,12.5,4.6,5.8-23.9,3.3-17.6-15.8m36.1,5.9l-19.3-22.1M27.95,99.1l14.5,12.5,22.9-18.3,26.9-1.3m3.4-4.6c-2.2,2.8-3.6,4.4-3.4,8.3.8,3.1,2.4,4.2,5,6.7,4.6,1.7,6.7-2.2,9.7-5.4m-.8-2.5l3.4,1.3h1.7l1.7-.4,1.3-.8,1.3-1.7.4-3.3m-.2-.1l-2.1-10.4m2.1,10.4l3.4,1.7h1.7l2.1-.8,1.7-.8.8-2.1-.8-3.8-1.3-10.8"/>
      <path class="cls-3" d="m142.15,51.4c5.4-.2,20.1,12.8,1.2,13"/>
      <path class="cls-4" d="m119.25,64.9h24.8"/>
      <path class="cls-2" d="m114.15,62.9l5.1-.5v5l-2.7-1-2.4-3.5Z"/>
      <path class="cls-2" d="m91.75,71.9l14.7,13.4-3.6,1.4-11.1-14.8Z"/>
      <path class="cls-2" d="m49.45,92.1l19.9-.9-1.6,3.5-18.3-2.6Z"/>
      <path class="cls-2" d="m44.95,87.8l-17,14.6-2.9-2.2,19.9-12.4Z"/>
      <path class="cls-2" d="m100.45,64.1l15.3,14.7-4,.7-11.3-15.4Z"/>
      <path class="cls-2" d="m105.65,59.3l19.8,13.3-3.9.4-15.9-13.7Z"/>
      <path class="cls-2" d="m110.85,26.3l19.3,23.1-4,.3-15.3-23.4Z"/>
      <path class="cls-3" d="m104.55,85.6l1.9,13"/>
      <path class="cls-2" d="m99.25,85.2l-2.2,3.6-3.1-2.6,5.3-1Z"/>
    </g>
  </g>
</svg>