<?xml version="1.0" encoding="UTF-8"?>
<svg id="Layer_1" data-name="Layer 1" xmlns="http://www.w3.org/2000/svg" viewBox="0 0 752.38 251.91">
  <defs>
    <style>
      .cls-1, .cls-2, .cls-3 {
        fill: #fff;
      }

      .cls-4 {
        fill: #e18341;
      }

      .cls-5 {
        fill: #0683cb;
      }

      .cls-6, .cls-7 {
        fill: #0c337f;
      }

      .cls-8 {
        fill: none;
      }

      .cls-8, .cls-2, .cls-3, .cls-7 {
        stroke: #fff;
      }

      .cls-8, .cls-3, .cls-7 {
        stroke-width: 4px;
      }

      .cls-2 {
        stroke-miterlimit: 10;
      }
    </style>
  </defs>
  <rect class="cls-4" x="33.1" y="100.51" width="36.8" height="40" transform="translate(-.44 .19) rotate(-.21)"/>
  <rect class="cls-4" x="76.1" y="100.51" width="84" height="40" transform="translate(-.44 .43) rotate(-.21)"/>
  <rect class="cls-4" x="33.2" y="145.61" width="77.6" height="40" transform="translate(-.6 .26) rotate(-.21)"/>
  <rect class="cls-4" x="32.9" y="10.21" width="35.1" height="40" transform="translate(-.11 .18) rotate(-.21)"/>
  <rect class="cls-4" x="74.2" y="10.21" width="84" height="40" transform="translate(-.11 .42) rotate(-.21)"/>
  <rect class="cls-4" x="164.3" y="10.21" width="84" height="40" transform="translate(-.11 .75) rotate(-.21)"/>
  <rect class="cls-4" x="33.1" y="55.31" width="78.4" height="40" transform="translate(-.27 .26) rotate(-.21)"/>
  <rect class="cls-4" x="117.6" y="55.31" width="84" height="40" transform="translate(-.27 .58) rotate(-.21)"/>
  <path class="cls-6" d="m259.9,19.71c20.6,46.3,33.6,107.4-26.4,134.1-60,26.6-125.5,95.9-192,80.7-11.5-127.8,83.8-48.8,100-155.5,1.8-64,97.9-105.6,118.4-59.3Z"/>
  <path class="cls-1" d="m214,121.91V16.91h29.6v105h-29.6Zm61.3,0V16.91h48c9.6,0,17.9,1.5,24.8,4.7,7,3.1,12.4,7.6,16.2,13.5,3.8,5.8,5.7,12.7,5.7,20.7s-1.9,14.8-5.7,20.6c-3.8,5.7-9.2,10.1-16.2,13.2-6.9,3-15.1,4.5-24.8,4.5h-31.5l13.2-12.4v40.2h-29.7Zm64.9,0l-26.1-38.2h31.6l26.2,38.2h-31.7Zm-35.2-37.2l-13.2-13.7h29.7c6.2,0,10.8-1.3,13.8-4.1,3.1-2.7,4.6-6.4,4.6-11.2s-1.5-8.7-4.6-11.4c-3-2.7-7.6-4-13.8-4h-29.7l13.2-13.7v58.1Zm117.8,37.2l-34.1-105h30.6l28.6,90.9h-15.4l30.2-90.9h27.3l28.5,90.9h-14.9l29.6-90.9h28.3l-34,105h-31.8l-24.3-77.2h8.5l-25.3,77.2h-31.8Zm159.9,0V16.91h29.7v105h-29.7Zm61.3,0V16.91h24.4l57.9,69.9h-11.5V16.91h29.1v105h-24.5l-57.9-69.9h11.5v69.9h-29Z"/>
  <path class="cls-5" d="m214.8,188.11v-56h23c5,0,9.2.8,12.7,2.4,3.6,1.6,6.3,3.9,8.2,6.9,1.9,3,2.9,6.5,2.9,10.6s-1,7.7-2.9,10.6c-1.9,3-4.7,5.3-8.2,6.9-3.5,1.6-7.8,2.4-12.7,2.4h-17.2l4.6-4.9v21h-10.4v.1Zm10.4-19.9l-4.6-5h16.8c4.6,0,8-1,10.3-2.9,2.3-2,3.5-4.7,3.5-8.2s-1.2-6.3-3.5-8.2-5.7-2.9-10.3-2.9h-16.8l4.6-5.1v32.3Zm48.5,19.9v-56h10.4v47.2h29.3v8.8h-39.7Zm41.7,0l25.2-56h10.2l25.3,56h-10.9l-21.7-50.5h4.2l-21.6,50.5h-10.7Zm11.6-13l2.8-8.2h30.2l2.8,8.2h-35.8Zm75.2,13.8c-4.4,0-8.6-.6-12.6-1.8-4-1.3-7.2-2.9-9.5-4.9l3.6-8.1c2.2,1.8,5,3.2,8.3,4.4s6.7,1.8,10.2,1.8c2.9,0,5.3-.3,7.1-1,1.8-.6,3.1-1.5,4-2.6s1.3-2.4,1.3-3.8c0-1.7-.6-3.1-1.8-4.1-1.2-1.1-2.8-1.9-4.8-2.5-1.9-.6-4.1-1.2-6.5-1.8-2.3-.5-4.7-1.1-7.1-1.8-2.3-.7-4.5-1.7-6.5-2.8-1.9-1.2-3.5-2.7-4.7-4.6-1.2-1.9-1.8-4.4-1.8-7.4s.8-5.8,2.4-8.3c1.7-2.6,4.1-4.6,7.4-6.1,3.4-1.5,7.6-2.3,12.7-2.3,3.4,0,6.7.4,10,1.3,3.3.9,6.2,2.1,8.6,3.7l-3.3,8.1c-2.5-1.5-5.1-2.6-7.8-3.3-2.7-.7-5.2-1.1-7.7-1.1-2.9,0-5.2.3-7,1s-3.1,1.6-3.9,2.7c-.8,1.1-1.2,2.4-1.2,3.8,0,1.7.6,3.1,1.8,4.2,1.2,1,2.8,1.8,4.7,2.4,2,.6,4.2,1.2,6.6,1.8,2.4.5,4.8,1.1,7.1,1.8,2.4.7,4.6,1.6,6.5,2.7,2,1.1,3.5,2.6,4.7,4.6,1.2,1.9,1.8,4.3,1.8,7.3s-.8,5.8-2.5,8.3c-1.6,2.5-4.1,4.5-7.4,6.1-3.4,1.5-7.6,2.3-12.7,2.3Zm45.1-.8v-47.2h-18.6v-8.8h47.5v8.8h-18.6v47.2h-10.3Zm48-32.7h27.8v8.6h-27.8v-8.6Zm.8,24h31.6v8.7h-42v-56h40.9v8.7h-30.5v38.6Zm44.7,8.7v-56h23c5,0,9.2.8,12.7,2.4,3.6,1.6,6.3,3.9,8.2,6.9s2.9,6.5,2.9,10.6-1,7.7-2.9,10.6c-1.9,2.9-4.7,5.2-8.2,6.8-3.5,1.5-7.8,2.3-12.7,2.3h-17.2l4.6-4.7v21h-10.4v.1Zm36.7,0l-14.2-20.3h11.1l14.2,20.3h-11.1Zm-26.3-19.9l-4.6-5h16.8c4.6,0,8-1,10.3-3s3.5-4.7,3.5-8.2-1.2-6.3-3.5-8.2-5.7-2.9-10.3-2.9h-16.8l4.6-5.1v32.4Zm49.8,19.9v-56h10.4v56h-10.4Zm27.1,0v-56h8.6l35.1,43.1h-4.2v-43.1h10.3v56h-8.6l-35.1-43.1h4.2v43.1h-10.3Zm92.5.8c-4.4,0-8.4-.7-12.1-2.1-3.6-1.4-6.8-3.4-9.5-6s-4.8-5.7-6.3-9.2-2.2-7.4-2.2-11.5.7-8,2.2-11.5,3.6-6.6,6.3-9.1c2.8-2.6,6-4.6,9.7-6s7.7-2.2,12.1-2.2c4.7,0,9,.8,12.8,2.3s7.1,3.8,9.7,6.8l-6.6,6.4c-2.2-2.2-4.6-3.8-7.1-4.8-2.5-1.1-5.3-1.6-8.3-1.6s-5.7.5-8.2,1.4c-2.5,1-4.7,2.3-6.5,4.1s-3.2,3.8-4.2,6.2-1.4,5-1.4,7.9.5,5.4,1.4,7.8c1,2.4,2.4,4.5,4.2,6.3s3.9,3.1,6.4,4.1,5.2,1.4,8.2,1.4c2.8,0,5.4-.4,8-1.3,2.6-.9,5.1-2.4,7.4-4.5l5.9,7.8c-2.9,2.3-6.3,4.1-10.2,5.4-3.8,1.3-7.7,1.9-11.7,1.9Zm12.1-8.5v-21h9.8v22.3l-9.8-1.3Z"/>
  <path class="cls-2" d="m749.39,210.61c1.35,0,2.49-1.1,2.49-2.5s-1.09-2.5-2.49-2.5v5Zm-548.29,1l548.29-1v-5l-548.29,1v5Z"/>
  <path class="cls-2" d="m189,210.11l12-3.5v5l-12-1.5Z"/>
  <path class="cls-7" d="m1,212.11l50.9-21.2,44.5-10m0-.1s26.6,2.7,46.6,5m-46.6-5l-8.4-16.7,13-12.1,5,5,18.6-19.1,64.7,71.3-27.7,12.5,4.6,5.8-23.9,3.3-17.7-15.8m36.1,5.9l-19.3-22.1m-113.5,34.6l13.5,12.5,23.9-18.3,26.9-1.3m3.4-4.6c-2.2,2.8-3.6,4.4-3.4,8.3.8,3.1,2.4,4.2,5,6.7,4.6,1.7,6.7-2.2,9.7-5.4m-.8-2.5l3.4,1.3h1.7l1.7-.4,1.3-.8,1.3-1.7.4-3.3m-.2-.1l-2.1-10.4m2.1,10.4l3.4,1.7h1.7l2.1-.8,1.7-.8.8-2.1-.8-3.8-1.3-10.8"/>
  <path class="cls-8" d="m142.62,185.81c5.49-.21,20.56,13.19,1.59,13.4"/>
  <path class="cls-8" d="m124.5,197.19l19.71,2.02"/>
  <path class="cls-1" d="m92.45,205.15l13.92,14.49-3.92.61-10-15.1Z"/>
  <path class="cls-1" d="m44.8,222.11l-17,14.6-2.9-2.2,19.9-12.4Z"/>
  <path class="cls-1" d="m102.05,198.41l13.5,14.6-3.9.8-9.6-15.4Z"/>
  <path class="cls-1" d="m109.7,194.01l15.54,12.99-3.86.85-11.68-13.84Z"/>
  <path class="cls-1" d="m110.7,160.61l19.3,23.1-4,.3-15.3-23.4Z"/>
  <path class="cls-3" d="m104.4,219.91l2.1,13.4"/>
  <polyline class="cls-1" points="93.99 220.44 99.05 220.89 97.14 222.97"/>
  <rect class="cls-6" y="186.91" width="33" height="65"/>
  <polyline class="cls-1" points="124.59 199.21 109.99 194.01 124.95 195.19"/>
</svg>