<svg className="w-full h-auto" viewBox="0 0 799 291" fill="none" xmlns="http://www.w3.org/2000/svg">
<rect x="17.4375" width="781" height="291" fill="white"/>
<rect x="50.4258" y="123.648" width="36.8386" height="40" transform="rotate(-0.20919 50.4258 123.648)" fill="#E18341"/>
<rect x="93.4102" y="123.734" width="84" height="40" transform="rotate(-0.20919 93.4102 123.734)" fill="#E18341"/>
<rect x="50.5664" y="168.885" width="77.5838" height="40" transform="rotate(-0.20919 50.5664 168.885)" fill="#E18341"/>
<rect x="50.2734" y="33.3184" width="35.0683" height="40" transform="rotate(-0.20919 50.2734 33.3184)" fill="#E18341"/>
<rect x="91.4883" y="33.4062" width="84" height="40" transform="rotate(-0.20919 91.4883 33.4062)" fill="#E18341"/>
<rect x="181.633" y="33.4062" width="84" height="40" transform="rotate(-0.20919 181.633 33.4062)" fill="#E18341"/>
<rect x="50.4258" y="78.5703" width="78.3602" height="40" transform="rotate(-0.20919 50.4258 78.5703)" fill="#E18341"/>
<rect x="134.934" y="78.5801" width="84" height="40" transform="rotate(-0.20919 134.934 78.5801)" fill="#E18341"/>
<path d="M277.339 42.7806C297.905 89.0945 310.911 150.219 250.945 176.847C190.979 203.476 125.447 272.7 58.939 257.501C47.4201 129.673 142.743 208.737 158.947 101.999C160.685 38.1129 256.773 -3.53328 277.339 42.7806Z" fill="white"/>
<path d="M231.35 145V40H261.05V145H231.35ZM292.68 145V40H340.68C350.28 40 358.53 41.55 365.43 44.65C372.43 47.75 377.83 52.25 381.63 58.15C385.43 63.95 387.33 70.85 387.33 78.85C387.33 86.75 385.43 93.6 381.63 99.4C377.83 105.1 372.43 109.5 365.43 112.6C358.53 115.6 350.28 117.1 340.68 117.1H309.18L322.38 104.65V145H292.68ZM357.63 145L331.53 106.75H363.18L389.43 145H357.63ZM322.38 107.8L309.18 94.15H338.88C345.08 94.15 349.68 92.8 352.68 90.1C355.78 87.4 357.33 83.65 357.33 78.85C357.33 73.95 355.78 70.15 352.68 67.45C349.68 64.75 345.08 63.4 338.88 63.4H309.18L322.38 49.75V107.8ZM440.165 145L406.115 40H436.715L465.365 130.9H449.915L480.065 40H507.365L535.865 130.9H521.015L550.565 40H578.915L544.865 145H513.065L488.765 67.75H497.315L471.965 145H440.165ZM600.057 145V40H629.757V145H600.057ZM661.387 145V40H685.837L743.737 109.9H732.187V40H761.287V145H736.837L678.937 75.1H690.487V145H661.387Z" fill="#2E3383"/>
<path d="M232.242 211.189L232.242 155.189L255.282 155.189C260.242 155.189 264.482 155.989 268.002 157.589C271.575 159.189 274.322 161.483 276.242 164.469C278.162 167.456 279.122 171.003 279.122 175.109C279.122 179.216 278.162 182.763 276.242 185.749C274.322 188.736 271.575 191.029 268.002 192.629C264.482 194.229 260.242 195.029 255.282 195.029L238.002 195.029L242.642 190.149L242.642 211.189L232.242 211.189ZM242.642 191.269L238.002 186.229L254.802 186.229C259.389 186.229 262.829 185.269 265.122 183.349C267.469 181.376 268.642 178.629 268.642 175.109C268.642 171.536 267.469 168.789 265.122 166.869C262.829 164.949 259.389 163.989 254.802 163.989L238.002 163.989L242.642 158.869L242.642 191.269ZM291.107 211.189L291.107 155.189L301.507 155.189L301.507 202.389L330.787 202.389L330.787 211.189L291.107 211.189ZM332.756 211.189L357.956 155.189L368.196 155.189L393.476 211.189L382.596 211.189L360.916 160.709L365.076 160.709L343.476 211.189L332.756 211.189ZM344.356 198.229L347.156 190.069L377.396 190.069L380.196 198.229L344.356 198.229ZM419.558 211.989C415.185 211.989 410.998 211.376 406.998 210.149C402.998 208.869 399.825 207.243 397.478 205.269L401.078 197.189C403.318 198.949 406.091 200.416 409.398 201.589C412.705 202.763 416.091 203.349 419.558 203.349C422.491 203.349 424.865 203.029 426.678 202.389C428.491 201.749 429.825 200.896 430.678 199.829C431.531 198.709 431.958 197.456 431.958 196.069C431.958 194.363 431.345 193.003 430.118 191.989C428.891 190.923 427.291 190.096 425.318 189.509C423.398 188.869 421.238 188.283 418.838 187.749C416.491 187.216 414.118 186.603 411.718 185.909C409.371 185.163 407.211 184.229 405.238 183.109C403.318 181.936 401.745 180.389 400.518 178.469C399.291 176.549 398.678 174.096 398.678 171.109C398.678 168.069 399.478 165.296 401.078 162.789C402.731 160.229 405.211 158.203 408.518 156.709C411.878 155.163 416.118 154.389 421.238 154.389C424.598 154.389 427.931 154.816 431.238 155.669C434.545 156.523 437.425 157.749 439.878 159.349L436.598 167.429C434.091 165.936 431.505 164.843 428.838 164.149C426.171 163.403 423.611 163.029 421.158 163.029C418.278 163.029 415.931 163.376 414.118 164.069C412.358 164.763 411.051 165.669 410.198 166.789C409.398 167.909 408.998 169.189 408.998 170.629C408.998 172.336 409.585 173.723 410.758 174.789C411.985 175.803 413.558 176.603 415.478 177.189C417.451 177.776 419.638 178.363 422.038 178.949C424.438 179.483 426.811 180.096 429.158 180.789C431.558 181.483 433.718 182.389 435.638 183.509C437.611 184.629 439.185 186.149 440.358 188.069C441.585 189.989 442.198 192.416 442.198 195.349C442.198 198.336 441.371 201.109 439.718 203.669C438.118 206.176 435.638 208.203 432.278 209.749C428.918 211.243 424.678 211.989 419.558 211.989ZM464.689 211.189L464.689 163.989L446.129 163.989L446.129 155.189L493.649 155.189L493.649 163.989L475.089 163.989L475.089 211.189L464.689 211.189ZM512.654 178.469L540.494 178.469L540.494 187.029L512.654 187.029L512.654 178.469ZM513.454 202.469L545.054 202.469L545.054 211.189L503.054 211.189L503.054 155.189L543.934 155.189L543.934 163.909L513.454 163.909L513.454 202.469ZM558.248 211.189L558.248 155.189L581.288 155.189C586.248 155.189 590.488 155.989 594.008 157.589C597.581 159.189 600.328 161.483 602.248 164.469C604.168 167.456 605.128 171.003 605.128 175.109C605.128 179.216 604.168 182.763 602.248 185.749C600.328 188.683 597.581 190.949 594.008 192.549C590.488 194.096 586.248 194.869 581.288 194.869L564.008 194.869L568.648 190.149L568.648 211.189L558.248 211.189ZM594.888 211.189L580.728 190.869L591.848 190.869L606.088 211.189L594.888 211.189ZM568.648 191.269L564.008 186.309L580.808 186.309C585.395 186.309 588.835 185.323 591.128 183.349C593.475 181.376 594.648 178.629 594.648 175.109C594.648 171.536 593.475 168.789 591.128 166.869C588.835 164.949 585.395 163.989 580.808 163.989L564.008 163.989L568.648 158.869L568.648 191.269ZM618.364 211.189L618.364 155.189L628.764 155.189L628.764 211.189L618.364 211.189ZM645.511 211.189L645.511 155.189L654.071 155.189L689.191 198.309L684.951 198.309L684.951 155.189L695.271 155.189L695.271 211.189L686.711 211.189L651.591 168.069L655.831 168.069L655.831 211.189L645.511 211.189ZM738.036 211.989C733.663 211.989 729.636 211.296 725.956 209.909C722.33 208.469 719.156 206.469 716.436 203.909C713.716 201.296 711.61 198.229 710.116 194.709C708.623 191.189 707.876 187.349 707.876 183.189C707.876 179.029 708.623 175.189 710.116 171.669C711.61 168.149 713.716 165.109 716.436 162.549C719.21 159.936 722.436 157.936 726.116 156.549C729.796 155.109 733.823 154.389 738.196 154.389C742.943 154.389 747.21 155.163 750.996 156.709C754.836 158.256 758.063 160.523 760.676 163.509L754.116 169.909C751.93 167.723 749.556 166.123 746.996 165.109C744.49 164.043 741.716 163.509 738.676 163.509C735.743 163.509 733.023 163.989 730.516 164.949C728.01 165.909 725.85 167.269 724.036 169.029C722.223 170.789 720.81 172.869 719.796 175.269C718.836 177.669 718.356 180.309 718.356 183.189C718.356 186.016 718.836 188.629 719.796 191.029C720.81 193.429 722.223 195.536 724.036 197.349C725.85 199.109 727.983 200.469 730.436 201.429C732.89 202.389 735.61 202.869 738.596 202.869C741.37 202.869 744.036 202.443 746.596 201.589C749.21 200.683 751.69 199.189 754.036 197.109L759.956 204.869C757.023 207.216 753.61 209.003 749.716 210.229C745.876 211.403 741.983 211.989 738.036 211.989ZM750.116 203.509L750.116 182.549L759.956 182.549L759.956 204.869L750.116 203.509Z" fill="#0683CB"/>
<path d="M772.442 233.688C773.823 233.685 774.94 232.564 774.938 231.183C774.935 229.802 773.814 228.685 772.433 228.688L772.442 233.688ZM218.442 234.689L772.442 233.688L772.433 228.688L218.433 229.689L218.442 234.689Z" fill="#101F6A"/>
<path d="M206.438 233.189L218.438 229.689V234.689L206.438 233.189Z" fill="#101F6A"/>
<path d="M18.4375 235.224L69.2718 213.958L113.804 203.95M113.804 203.95C113.804 203.95 140.421 206.674 160.437 208.954M113.804 203.95L105.402 187.27L118.426 175.178L123.467 180.181L141.952 161L206.65 232.305L178.923 244.815L183.544 250.653L159.597 253.988L141.952 238.143M178.082 243.981L158.757 221.88M45.325 256.49L58.7688 269L82.7155 250.653L109.603 249.402M112.964 244.815C110.731 247.634 109.41 249.182 109.603 253.154C110.44 256.294 111.962 257.384 114.645 259.826C119.266 261.494 121.381 257.62 124.307 254.405M123.467 251.903L126.828 253.154H128.508L130.189 252.737L131.449 251.903L132.71 250.236L133.13 246.9M133.13 246.9L131.029 236.475M133.13 246.9L136.491 248.568H138.171L140.272 247.734L141.952 246.9L142.792 244.815L141.952 241.062L140.692 230.22" stroke="#101F6A" stroke-width="4"/>
<path d="M159.598 209.316C165.476 209.159 181.306 222.096 160.858 222.34" stroke="#101F6A" stroke-width="5"/>
<path d="M136.49 222.338H161.277" stroke="#101F6A" stroke-width="5"/>
<path d="M131.438 220.5L137.438 220V225L134.238 224L131.438 220.5Z" fill="#101F6A"/>
<path d="M110.46 229.547L123.467 242.923L120.512 244.614L110.46 229.547Z" fill="#101F6A"/>
<path d="M62.2222 245.19L45.2342 259.806L42.3835 257.628L62.2222 245.19Z" fill="#101F6A"/>
<path d="M119.684 221.916L132.708 236.621L129.349 237.335L119.684 221.916Z" fill="#101F6A"/>
<path d="M127.12 217.09L141.951 230.741L139.011 231.16L127.12 217.09Z" fill="#101F6A"/>
<path d="M127.12 217.09L141.951 230.741L139.011 231.16L127.12 217.09Z" fill="#101F6A"/>
<path d="M128.079 183.694L147.414 206.794L143.432 207.077L128.079 183.694Z" fill="#101F6A"/>
<path d="M121.809 242.971L123.886 256.367" stroke="#101F6A" stroke-width="4"/>
<path d="M115.438 243L114.198 247L110.438 245.281L115.438 243Z" fill="#101F6A"/>
<rect x="17.4375" y="210" width="33" height="65" fill="white"/>
</svg>
