<svg className="w-full h-auto" viewBox="0 0 1895 297" fill="none" xmlns="http://www.w3.org/2000/svg">
<rect x="17" y="6" width="1878" height="291" fill="white"/>
<rect x="50.4258" y="129.648" width="36.8386" height="40" transform="rotate(-0.20919 50.4258 129.648)" fill="#E18341"/>
<rect x="93.4102" y="129.734" width="84" height="40" transform="rotate(-0.20919 93.4102 129.734)" fill="#E18341"/>
<rect x="50.5664" y="174.885" width="77.5838" height="40" transform="rotate(-0.20919 50.5664 174.885)" fill="#E18341"/>
<rect x="50.2734" y="39.4102" width="35.0683" height="40" transform="rotate(-0.20919 50.2734 39.4102)" fill="#E18341"/>
<rect x="91.4883" y="39.4062" width="84" height="40" transform="rotate(-0.20919 91.4883 39.4062)" fill="#E18341"/>
<rect x="181.633" y="39.0664" width="84" height="40.3406" transform="rotate(-0.20919 181.633 39.0664)" fill="#E18341"/>
<rect x="50.4258" y="84.5703" width="78.3602" height="40" transform="rotate(-0.20919 50.4258 84.5703)" fill="#E18341"/>
<rect x="134.934" y="84.5801" width="84" height="40" transform="rotate(-0.20919 134.934 84.5801)" fill="#E18341"/>
<path d="M277.339 48.7806C297.905 95.0945 310.911 156.219 250.945 182.847C190.979 209.476 125.447 278.7 58.939 263.501C47.4201 135.673 142.743 214.737 158.947 107.999C160.685 44.1129 256.773 2.46672 277.339 48.7806Z" fill="white"/>
<path d="M876.219 83.738C875.031 83.738 873.951 83.468 872.979 82.928C872.007 82.388 871.233 81.65 870.657 80.714C870.081 79.742 869.793 78.644 869.793 77.42C869.793 75.98 870.117 74.72 870.765 73.64C871.413 72.56 872.277 71.714 873.357 71.102C874.437 70.454 875.661 70.13 877.029 70.13C878.217 70.13 879.279 70.4 880.215 70.94C881.187 71.48 881.961 72.218 882.537 73.154C883.113 74.09 883.401 75.17 883.401 76.394C883.401 77.798 883.077 79.058 882.429 80.174C881.781 81.29 880.917 82.172 879.837 82.82C878.757 83.432 877.551 83.738 876.219 83.738ZM913.598 92L938.006 54.2H946.7L955.988 92H947.24L939.896 58.52H943.352L922.94 92H913.598ZM923.696 83.9L927.26 77.258H946.754L947.78 83.9H923.696ZM961.53 92L969.522 51.932H977.946L969.954 92H961.53ZM979.932 92L987.924 51.932H996.348L988.356 92H979.932ZM1011.36 92L1035.77 54.2H1044.46L1053.75 92H1045L1037.66 58.52H1041.11L1020.7 92H1011.36ZM1021.46 83.9L1025.02 77.258H1044.52L1045.54 83.9H1021.46ZM1069.61 92.432C1067.06 92.432 1064.64 92.144 1062.38 91.568C1060.14 90.992 1058.42 90.272 1057.19 89.408L1060.43 83.306C1061.69 84.134 1063.22 84.8 1065.02 85.304C1066.86 85.808 1068.69 86.06 1070.53 86.06C1072.51 86.06 1073.95 85.808 1074.85 85.304C1075.75 84.8 1076.2 84.116 1076.2 83.252C1076.2 82.568 1075.82 82.064 1075.07 81.74C1074.31 81.38 1073.36 81.092 1072.2 80.876C1071.05 80.66 1069.81 80.408 1068.48 80.12C1067.18 79.832 1065.94 79.436 1064.75 78.932C1063.6 78.392 1062.65 77.636 1061.89 76.664C1061.17 75.656 1060.81 74.342 1060.81 72.722C1060.81 70.526 1061.42 68.672 1062.65 67.16C1063.91 65.648 1065.63 64.496 1067.83 63.704C1070.06 62.912 1072.58 62.516 1075.39 62.516C1077.41 62.516 1079.37 62.732 1081.28 63.164C1083.18 63.596 1084.8 64.19 1086.14 64.946L1083.11 71.102C1081.74 70.238 1080.3 69.662 1078.79 69.374C1077.32 69.05 1075.89 68.888 1074.53 68.888C1072.55 68.888 1071.11 69.176 1070.21 69.752C1069.34 70.292 1068.91 70.958 1068.91 71.75C1068.91 72.434 1069.27 72.974 1069.99 73.37C1070.75 73.73 1071.7 74.036 1072.85 74.288C1074 74.504 1075.25 74.756 1076.58 75.044C1077.91 75.296 1079.15 75.692 1080.3 76.232C1081.46 76.736 1082.39 77.474 1083.11 78.446C1083.87 79.382 1084.25 80.66 1084.25 82.28C1084.25 84.476 1083.6 86.348 1082.3 87.896C1081.04 89.408 1079.31 90.542 1077.12 91.298C1074.92 92.054 1072.42 92.432 1069.61 92.432ZM1108.45 92.432C1106.11 92.432 1104.06 91.982 1102.29 91.082C1100.57 90.182 1099.27 88.796 1098.41 86.924C1097.54 85.016 1097.24 82.568 1097.49 79.58C1097.7 76.124 1098.41 73.118 1099.59 70.562C1100.82 68.006 1102.47 66.026 1104.56 64.622C1106.65 63.218 1109.12 62.516 1111.96 62.516C1114.23 62.516 1116.32 63.038 1118.22 64.082C1120.13 65.09 1121.66 66.566 1122.81 68.51C1123.97 70.418 1124.54 72.758 1124.54 75.53C1124.54 77.942 1124.13 80.192 1123.3 82.28C1122.47 84.332 1121.32 86.114 1119.84 87.626C1118.4 89.138 1116.71 90.326 1114.77 91.19C1112.82 92.018 1110.72 92.432 1108.45 92.432ZM1087.77 102.476L1095.65 62.948H1103.64L1102.46 68.726L1100.62 77.366L1099.49 86.006L1096.19 102.476H1087.77ZM1107.48 85.466C1109.17 85.466 1110.65 85.07 1111.91 84.278C1113.17 83.45 1114.16 82.334 1114.88 80.93C1115.63 79.49 1116.01 77.816 1116.01 75.908C1116.01 73.928 1115.43 72.362 1114.28 71.21C1113.13 70.058 1111.49 69.482 1109.37 69.482C1107.75 69.482 1106.29 69.896 1104.99 70.724C1103.7 71.516 1102.69 72.632 1101.97 74.072C1101.25 75.476 1100.89 77.132 1100.89 79.04C1100.89 81.02 1101.47 82.586 1102.62 83.738C1103.77 84.89 1105.39 85.466 1107.48 85.466ZM1144.76 92.432C1141.74 92.432 1139.11 91.892 1136.88 90.812C1134.68 89.732 1132.97 88.22 1131.75 86.276C1130.52 84.332 1129.91 82.046 1129.91 79.418C1129.91 76.178 1130.63 73.298 1132.07 70.778C1133.55 68.222 1135.56 66.206 1138.12 64.73C1140.71 63.254 1143.68 62.516 1147.03 62.516C1149.87 62.516 1152.32 63.056 1154.37 64.136C1156.43 65.18 1158.01 66.656 1159.13 68.564C1160.28 70.436 1160.85 72.686 1160.85 75.314C1160.85 76.07 1160.8 76.826 1160.69 77.582C1160.62 78.338 1160.51 79.058 1160.37 79.742H1136.34L1137.2 74.828H1156.43L1152.97 76.34C1153.26 74.72 1153.17 73.37 1152.7 72.29C1152.23 71.174 1151.48 70.328 1150.43 69.752C1149.39 69.14 1148.13 68.834 1146.65 68.834C1144.82 68.834 1143.25 69.284 1141.95 70.184C1140.69 71.048 1139.74 72.254 1139.09 73.802C1138.44 75.35 1138.12 77.096 1138.12 79.04C1138.12 81.272 1138.73 82.946 1139.96 84.062C1141.22 85.142 1143.11 85.682 1145.63 85.682C1147.1 85.682 1148.52 85.448 1149.89 84.98C1151.26 84.512 1152.43 83.846 1153.4 82.982L1156.91 88.544C1155.22 89.876 1153.31 90.866 1151.19 91.514C1149.1 92.126 1146.96 92.432 1144.76 92.432ZM1180.72 92.432C1177.73 92.432 1175.12 91.892 1172.89 90.812C1170.7 89.732 1168.99 88.22 1167.76 86.276C1166.54 84.332 1165.93 82.046 1165.93 79.418C1165.93 76.178 1166.68 73.298 1168.19 70.778C1169.71 68.222 1171.79 66.206 1174.46 64.73C1177.12 63.254 1180.18 62.516 1183.64 62.516C1186.73 62.516 1189.42 63.164 1191.68 64.46C1193.95 65.72 1195.63 67.52 1196.71 69.86L1189.58 73.424C1188.97 72.056 1188.1 71.066 1186.99 70.454C1185.91 69.806 1184.61 69.482 1183.1 69.482C1181.44 69.482 1179.97 69.896 1178.67 70.724C1177.37 71.516 1176.35 72.632 1175.59 74.072C1174.84 75.476 1174.46 77.114 1174.46 78.986C1174.46 80.966 1175.03 82.55 1176.19 83.738C1177.37 84.89 1179.05 85.466 1181.21 85.466C1182.68 85.466 1184.03 85.16 1185.26 84.548C1186.48 83.9 1187.51 82.91 1188.34 81.578L1194.55 85.466C1193.18 87.662 1191.27 89.372 1188.82 90.596C1186.41 91.82 1183.71 92.432 1180.72 92.432ZM1211.7 92.432C1209.61 92.432 1207.83 92.018 1206.35 91.19C1204.88 90.326 1203.81 89.102 1203.17 87.518C1202.55 85.898 1202.46 83.99 1202.9 81.794L1207.92 56.522H1216.34L1211.32 81.74C1211.1 82.964 1211.23 83.936 1211.7 84.656C1212.17 85.376 1213.03 85.736 1214.29 85.736C1214.87 85.736 1215.44 85.646 1216.02 85.466C1216.63 85.286 1217.19 85.034 1217.69 84.71L1218.93 90.704C1217.89 91.352 1216.74 91.802 1215.48 92.054C1214.22 92.306 1212.96 92.432 1211.7 92.432ZM1200.74 70.076L1202.03 63.596H1222.17L1220.88 70.076H1200.74ZM1236.08 92.432C1233.53 92.432 1231.12 92.144 1228.85 91.568C1226.62 90.992 1224.89 90.272 1223.66 89.408L1226.9 83.306C1228.16 84.134 1229.69 84.8 1231.49 85.304C1233.33 85.808 1235.17 86.06 1237 86.06C1238.98 86.06 1240.42 85.808 1241.32 85.304C1242.22 84.8 1242.67 84.116 1242.67 83.252C1242.67 82.568 1242.29 82.064 1241.54 81.74C1240.78 81.38 1239.83 81.092 1238.68 80.876C1237.52 80.66 1236.28 80.408 1234.95 80.12C1233.65 79.832 1232.41 79.436 1231.22 78.932C1230.07 78.392 1229.12 77.636 1228.36 76.664C1227.64 75.656 1227.28 74.342 1227.28 72.722C1227.28 70.526 1227.89 68.672 1229.12 67.16C1230.38 65.648 1232.11 64.496 1234.3 63.704C1236.53 62.912 1239.05 62.516 1241.86 62.516C1243.88 62.516 1245.84 62.732 1247.75 63.164C1249.66 63.596 1251.28 64.19 1252.61 64.946L1249.58 71.102C1248.22 70.238 1246.78 69.662 1245.26 69.374C1243.79 69.05 1242.37 68.888 1241 68.888C1239.02 68.888 1237.58 69.176 1236.68 69.752C1235.81 70.292 1235.38 70.958 1235.38 71.75C1235.38 72.434 1235.74 72.974 1236.46 73.37C1237.22 73.73 1238.17 74.036 1239.32 74.288C1240.48 74.504 1241.72 74.756 1243.05 75.044C1244.38 75.296 1245.62 75.692 1246.78 76.232C1247.93 76.736 1248.86 77.474 1249.58 78.446C1250.34 79.382 1250.72 80.66 1250.72 82.28C1250.72 84.476 1250.07 86.348 1248.77 87.896C1247.51 89.408 1245.79 90.542 1243.59 91.298C1241.39 92.054 1238.89 92.432 1236.08 92.432ZM1288.97 92.432C1286.02 92.432 1283.45 91.892 1281.25 90.812C1279.06 89.732 1277.35 88.22 1276.12 86.276C1274.93 84.332 1274.34 82.046 1274.34 79.418C1274.34 76.178 1275.1 73.298 1276.61 70.778C1278.12 68.222 1280.19 66.206 1282.82 64.73C1285.48 63.254 1288.51 62.516 1291.89 62.516C1294.88 62.516 1297.45 63.056 1299.61 64.136C1301.81 65.216 1303.5 66.728 1304.69 68.672C1305.91 70.58 1306.52 72.866 1306.52 75.53C1306.52 78.734 1305.77 81.614 1304.26 84.17C1302.74 86.726 1300.67 88.742 1298.05 90.218C1295.42 91.694 1292.39 92.432 1288.97 92.432ZM1289.51 85.52C1291.17 85.52 1292.63 85.124 1293.89 84.332C1295.18 83.504 1296.19 82.37 1296.91 80.93C1297.63 79.49 1297.99 77.816 1297.99 75.908C1297.99 73.964 1297.42 72.398 1296.26 71.21C1295.11 70.022 1293.49 69.428 1291.4 69.428C1289.75 69.428 1288.27 69.842 1286.98 70.67C1285.72 71.462 1284.71 72.578 1283.95 74.018C1283.23 75.458 1282.87 77.132 1282.87 79.04C1282.87 81.02 1283.45 82.604 1284.6 83.792C1285.75 84.944 1287.39 85.52 1289.51 85.52ZM1312.26 92L1318.31 61.922C1318.96 58.754 1320.33 56.234 1322.42 54.362C1324.54 52.454 1327.38 51.5 1330.95 51.5C1332.28 51.5 1333.52 51.644 1334.67 51.932C1335.83 52.184 1336.82 52.58 1337.64 53.12L1334.35 59.168C1333.38 58.484 1332.26 58.142 1331 58.142C1329.71 58.142 1328.7 58.502 1327.98 59.222C1327.26 59.906 1326.74 61.004 1326.41 62.516L1325.82 65.216L1325.39 68.618L1320.74 92H1312.26ZM1312.16 70.076L1313.45 63.596H1333.59L1332.3 70.076H1312.16ZM1352.33 92L1359.89 54.2H1375.17C1379.89 54.2 1383.52 55.244 1386.08 57.332C1388.67 59.384 1389.97 62.264 1389.97 65.972C1389.97 69.14 1389.23 71.912 1387.75 74.288C1386.28 76.628 1384.15 78.428 1381.38 79.688C1378.64 80.948 1375.39 81.578 1371.61 81.578H1359.35L1363.99 77.582L1361.13 92H1352.33ZM1363.78 78.608L1360.7 74.45H1371.98C1374.86 74.45 1377.1 73.802 1378.68 72.506C1380.3 71.174 1381.11 69.248 1381.11 66.728C1381.11 64.892 1380.5 63.542 1379.27 62.678C1378.05 61.778 1376.32 61.328 1374.09 61.328H1363.45L1368.1 57.062L1363.78 78.608ZM1393.5 92L1401.49 51.932H1409.91L1401.92 92H1393.5ZM1425.02 92.432C1422.79 92.432 1420.72 91.928 1418.81 90.92C1416.9 89.876 1415.37 88.382 1414.22 86.438C1413.07 84.494 1412.49 82.154 1412.49 79.418C1412.49 76.97 1412.89 74.72 1413.68 72.668C1414.51 70.616 1415.66 68.834 1417.14 67.322C1418.61 65.81 1420.32 64.64 1422.27 63.812C1424.21 62.948 1426.3 62.516 1428.53 62.516C1430.94 62.516 1433.01 62.966 1434.74 63.866C1436.47 64.766 1437.75 66.17 1438.58 68.078C1439.44 69.95 1439.75 72.38 1439.49 75.368C1439.31 78.788 1438.61 81.794 1437.39 84.386C1436.16 86.942 1434.51 88.922 1432.42 90.326C1430.37 91.73 1427.9 92.432 1425.02 92.432ZM1427.61 85.466C1429.27 85.466 1430.73 85.07 1431.99 84.278C1433.28 83.45 1434.29 82.334 1435.01 80.93C1435.77 79.49 1436.15 77.816 1436.15 75.908C1436.15 73.928 1435.55 72.362 1434.36 71.21C1433.21 70.058 1431.59 69.482 1429.5 69.482C1427.88 69.482 1426.43 69.896 1425.13 70.724C1423.83 71.516 1422.81 72.632 1422.05 74.072C1421.33 75.476 1420.97 77.132 1420.97 79.04C1420.97 81.02 1421.55 82.586 1422.7 83.738C1423.89 84.89 1425.53 85.466 1427.61 85.466ZM1433.39 92L1434.53 86.222L1436.42 77.582L1437.55 68.942L1438.74 62.948H1447.16L1441.38 92H1433.39ZM1461.93 92.432C1459.37 92.432 1456.96 92.144 1454.69 91.568C1452.46 90.992 1450.73 90.272 1449.51 89.408L1452.75 83.306C1454.01 84.134 1455.54 84.8 1457.34 85.304C1459.17 85.808 1461.01 86.06 1462.85 86.06C1464.83 86.06 1466.27 85.808 1467.17 85.304C1468.07 84.8 1468.52 84.116 1468.52 83.252C1468.52 82.568 1468.14 82.064 1467.38 81.74C1466.63 81.38 1465.67 81.092 1464.52 80.876C1463.37 80.66 1462.13 80.408 1460.79 80.12C1459.5 79.832 1458.26 79.436 1457.07 78.932C1455.92 78.392 1454.96 77.636 1454.21 76.664C1453.49 75.656 1453.13 74.342 1453.13 72.722C1453.13 70.526 1453.74 68.672 1454.96 67.16C1456.22 65.648 1457.95 64.496 1460.15 63.704C1462.38 62.912 1464.9 62.516 1467.71 62.516C1469.72 62.516 1471.68 62.732 1473.59 63.164C1475.5 63.596 1477.12 64.19 1478.45 64.946L1475.43 71.102C1474.06 70.238 1472.62 69.662 1471.11 69.374C1469.63 69.05 1468.21 68.888 1466.84 68.888C1464.86 68.888 1463.42 69.176 1462.52 69.752C1461.66 70.292 1461.23 70.958 1461.23 71.75C1461.23 72.434 1461.59 72.974 1462.31 73.37C1463.06 73.73 1464.02 74.036 1465.17 74.288C1466.32 74.504 1467.56 74.756 1468.89 75.044C1470.23 75.296 1471.47 75.692 1472.62 76.232C1473.77 76.736 1474.71 77.474 1475.43 78.446C1476.18 79.382 1476.56 80.66 1476.56 82.28C1476.56 84.476 1475.91 86.348 1474.62 87.896C1473.36 89.408 1471.63 90.542 1469.43 91.298C1467.24 92.054 1464.74 92.432 1461.93 92.432ZM1494.02 92.432C1491.93 92.432 1490.15 92.018 1488.67 91.19C1487.19 90.326 1486.13 89.102 1485.48 87.518C1484.87 85.898 1484.78 83.99 1485.21 81.794L1490.24 56.522H1498.66L1493.64 81.74C1493.42 82.964 1493.55 83.936 1494.02 84.656C1494.48 85.376 1495.35 85.736 1496.61 85.736C1497.18 85.736 1497.76 85.646 1498.34 85.466C1498.95 85.286 1499.51 85.034 1500.01 84.71L1501.25 90.704C1500.21 91.352 1499.06 91.802 1497.8 92.054C1496.54 92.306 1495.28 92.432 1494.02 92.432ZM1483.05 70.076L1484.35 63.596H1504.49L1503.2 70.076H1483.05ZM1522.37 92.432C1519.34 92.432 1516.71 91.892 1514.48 90.812C1512.29 89.732 1510.58 88.22 1509.35 86.276C1508.13 84.332 1507.52 82.046 1507.52 79.418C1507.52 76.178 1508.24 73.298 1509.68 70.778C1511.15 68.222 1513.17 66.206 1515.72 64.73C1518.32 63.254 1521.29 62.516 1524.63 62.516C1527.48 62.516 1529.93 63.056 1531.98 64.136C1534.03 65.18 1535.61 66.656 1536.73 68.564C1537.88 70.436 1538.46 72.686 1538.46 75.314C1538.46 76.07 1538.4 76.826 1538.3 77.582C1538.22 78.338 1538.12 79.058 1537.97 79.742H1513.94L1514.81 74.828H1534.03L1530.57 76.34C1530.86 74.72 1530.77 73.37 1530.3 72.29C1529.84 71.174 1529.08 70.328 1528.04 69.752C1526.99 69.14 1525.73 68.834 1524.26 68.834C1522.42 68.834 1520.85 69.284 1519.56 70.184C1518.3 71.048 1517.34 72.254 1516.7 73.802C1516.05 75.35 1515.72 77.096 1515.72 79.04C1515.72 81.272 1516.34 82.946 1517.56 84.062C1518.82 85.142 1520.71 85.682 1523.23 85.682C1524.71 85.682 1526.13 85.448 1527.5 84.98C1528.86 84.512 1530.03 83.846 1531.01 82.982L1534.52 88.544C1532.82 89.876 1530.92 90.866 1528.79 91.514C1526.7 92.126 1524.56 92.432 1522.37 92.432ZM1542.99 92L1548.77 62.948H1556.76L1555.09 71.21L1554.33 68.834C1555.63 66.494 1557.32 64.856 1559.41 63.92C1561.49 62.984 1564 62.516 1566.91 62.516L1565.4 70.292C1565.04 70.256 1564.7 70.238 1564.37 70.238C1564.09 70.202 1563.78 70.184 1563.46 70.184C1560.97 70.184 1558.94 70.796 1557.35 72.02C1555.81 73.244 1554.76 75.224 1554.22 77.96L1551.41 92H1542.99ZM1568.25 92L1574.03 62.948H1582.4L1576.62 92H1568.25ZM1579.64 58.898C1578.17 58.898 1576.98 58.484 1576.08 57.656C1575.18 56.792 1574.73 55.748 1574.73 54.524C1574.73 53.084 1575.23 51.896 1576.24 50.96C1577.28 49.988 1578.63 49.502 1580.29 49.502C1581.77 49.502 1582.95 49.916 1583.85 50.744C1584.79 51.536 1585.26 52.526 1585.26 53.714C1585.26 55.262 1584.74 56.522 1583.69 57.494C1582.68 58.43 1581.33 58.898 1579.64 58.898ZM1609.28 62.516C1611.76 62.516 1613.87 63.038 1615.59 64.082C1617.32 65.09 1618.55 66.584 1619.27 68.564C1619.99 70.544 1620.06 72.992 1619.48 75.908L1616.24 92H1607.82L1610.95 76.448C1611.38 74.324 1611.2 72.686 1610.41 71.534C1609.65 70.382 1608.25 69.806 1606.2 69.806C1604.07 69.806 1602.29 70.418 1600.85 71.642C1599.45 72.866 1598.48 74.738 1597.94 77.258L1595.02 92H1586.6L1592.37 62.948H1600.37L1598.69 71.156L1597.5 68.672C1598.91 66.548 1600.64 65 1602.69 64.028C1604.78 63.02 1606.97 62.516 1609.28 62.516ZM1638.56 102.908C1635.76 102.908 1633.16 102.584 1630.79 101.936C1628.45 101.288 1626.43 100.334 1624.74 99.074L1628.74 92.972C1629.89 93.908 1631.36 94.664 1633.16 95.24C1635 95.816 1636.93 96.104 1638.94 96.104C1641.86 96.104 1644.04 95.474 1645.48 94.214C1646.95 92.954 1647.94 91.082 1648.45 88.598L1649.47 83.36L1651.42 76.556L1652.71 69.212L1653.9 62.948H1661.95L1657.14 87.14C1656.02 92.72 1653.9 96.734 1650.77 99.182C1647.67 101.666 1643.6 102.908 1638.56 102.908ZM1639.81 90.596C1637.43 90.596 1635.27 90.11 1633.33 89.138C1631.38 88.166 1629.83 86.78 1628.68 84.98C1627.53 83.144 1626.95 80.948 1626.95 78.392C1626.95 76.16 1627.35 74.09 1628.14 72.182C1628.97 70.274 1630.1 68.6 1631.54 67.16C1633.02 65.684 1634.73 64.55 1636.67 63.758C1638.65 62.93 1640.81 62.516 1643.15 62.516C1645.28 62.516 1647.2 62.912 1648.93 63.704C1650.66 64.496 1651.99 65.774 1652.93 67.538C1653.9 69.302 1654.26 71.66 1654.01 74.612C1653.79 77.816 1653.09 80.624 1651.9 83.036C1650.71 85.412 1649.09 87.266 1647.04 88.598C1645.03 89.93 1642.61 90.596 1639.81 90.596ZM1642.07 83.684C1643.73 83.684 1645.19 83.324 1646.45 82.604C1647.71 81.884 1648.7 80.894 1649.42 79.634C1650.14 78.338 1650.5 76.862 1650.5 75.206C1650.5 73.442 1649.92 72.056 1648.77 71.048C1647.62 70.004 1646.02 69.482 1643.96 69.482C1642.31 69.482 1640.83 69.842 1639.54 70.562C1638.28 71.282 1637.27 72.29 1636.51 73.586C1635.79 74.846 1635.43 76.304 1635.43 77.96C1635.43 79.724 1636.03 81.128 1637.21 82.172C1638.4 83.18 1640.02 83.684 1642.07 83.684ZM1683.62 92L1689.4 62.948H1697.77L1691.99 92H1683.62ZM1695.02 58.898C1693.54 58.898 1692.35 58.484 1691.45 57.656C1690.55 56.792 1690.1 55.748 1690.1 54.524C1690.1 53.084 1690.61 51.896 1691.61 50.96C1692.66 49.988 1694.01 49.502 1695.66 49.502C1697.14 49.502 1698.33 49.916 1699.23 50.744C1700.16 51.536 1700.63 52.526 1700.63 53.714C1700.63 55.262 1700.11 56.522 1699.07 57.494C1698.06 58.43 1696.71 58.898 1695.02 58.898ZM1724.65 62.516C1727.14 62.516 1729.24 63.038 1730.97 64.082C1732.7 65.09 1733.92 66.584 1734.64 68.564C1735.36 70.544 1735.43 72.992 1734.86 75.908L1731.62 92H1723.19L1726.33 76.448C1726.76 74.324 1726.58 72.686 1725.79 71.534C1725.03 70.382 1723.63 69.806 1721.57 69.806C1719.45 69.806 1717.67 70.418 1716.23 71.642C1714.82 72.866 1713.85 74.738 1713.31 77.258L1710.4 92H1701.97L1707.75 62.948H1715.74L1714.07 71.156L1712.88 68.672C1714.28 66.548 1716.01 65 1718.06 64.028C1720.15 63.02 1722.35 62.516 1724.65 62.516ZM1756.91 92.432C1753.92 92.432 1751.31 91.892 1749.08 90.812C1746.88 89.732 1745.17 88.22 1743.95 86.276C1742.72 84.332 1742.11 82.046 1742.11 79.418C1742.11 76.178 1742.87 73.298 1744.38 70.778C1745.89 68.222 1747.98 66.206 1750.64 64.73C1753.31 63.254 1756.37 62.516 1759.82 62.516C1762.92 62.516 1765.6 63.164 1767.87 64.46C1770.14 65.72 1771.81 67.52 1772.89 69.86L1765.76 73.424C1765.15 72.056 1764.29 71.066 1763.17 70.454C1762.09 69.806 1760.8 69.482 1759.28 69.482C1757.63 69.482 1756.15 69.896 1754.86 70.724C1753.56 71.516 1752.53 72.632 1751.78 74.072C1751.02 75.476 1750.64 77.114 1750.64 78.986C1750.64 80.966 1751.22 82.55 1752.37 83.738C1753.56 84.89 1755.23 85.466 1757.39 85.466C1758.87 85.466 1760.22 85.16 1761.44 84.548C1762.67 83.9 1763.69 82.91 1764.52 81.578L1770.73 85.466C1769.36 87.662 1767.46 89.372 1765.01 90.596C1762.6 91.82 1759.9 92.432 1756.91 92.432ZM1775.48 92L1783.47 51.932H1791.89L1783.9 92H1775.48ZM1797.71 92.432C1796.27 92.432 1795.09 91.982 1794.15 91.082C1793.21 90.146 1792.75 88.976 1792.75 87.572C1792.75 85.88 1793.29 84.53 1794.37 83.522C1795.48 82.478 1796.81 81.956 1798.36 81.956C1799.8 81.956 1800.97 82.406 1801.87 83.306C1802.81 84.206 1803.28 85.376 1803.28 86.816C1803.28 87.932 1803.01 88.922 1802.47 89.786C1801.96 90.614 1801.3 91.262 1800.47 91.73C1799.64 92.198 1798.72 92.432 1797.71 92.432ZM876.219 149.738C875.031 149.738 873.951 149.468 872.979 148.928C872.007 148.388 871.233 147.65 870.657 146.714C870.081 145.742 869.793 144.644 869.793 143.42C869.793 141.98 870.117 140.72 870.765 139.64C871.413 138.56 872.277 137.714 873.357 137.102C874.437 136.454 875.661 136.13 877.029 136.13C878.217 136.13 879.279 136.4 880.215 136.94C881.187 137.48 881.961 138.218 882.537 139.154C883.113 140.09 883.401 141.17 883.401 142.394C883.401 143.798 883.077 145.058 882.429 146.174C881.781 147.29 880.917 148.172 879.837 148.82C878.757 149.432 877.551 149.738 876.219 149.738ZM938.438 158.648C934.586 158.648 931.256 157.964 928.448 156.596C925.676 155.192 923.534 153.266 922.022 150.818C920.51 148.334 919.754 145.472 919.754 142.232C919.754 139.028 920.312 136.04 921.428 133.268C922.58 130.496 924.182 128.102 926.234 126.086C928.322 124.034 930.788 122.432 933.632 121.28C936.512 120.128 939.716 119.552 943.244 119.552C946.628 119.552 949.616 120.128 952.208 121.28C954.8 122.432 956.762 124.088 958.094 126.248L951.776 131.432C950.804 129.992 949.562 128.894 948.05 128.138C946.538 127.382 944.738 127.004 942.65 127.004C940.526 127.004 938.6 127.382 936.872 128.138C935.144 128.858 933.65 129.902 932.39 131.27C931.166 132.602 930.23 134.168 929.582 135.968C928.934 137.768 928.61 139.676 928.61 141.692C928.61 143.6 929.024 145.274 929.852 146.714C930.68 148.118 931.886 149.216 933.47 150.008C935.054 150.8 936.962 151.196 939.194 151.196C941.138 151.196 942.956 150.854 944.648 150.17C946.34 149.45 947.87 148.334 949.238 146.822L954.422 152.114C952.442 154.418 950.084 156.092 947.348 157.136C944.648 158.144 941.678 158.648 938.438 158.648ZM973.962 158.432C971.01 158.432 968.436 157.892 966.24 156.812C964.044 155.732 962.334 154.22 961.11 152.276C959.922 150.332 959.328 148.046 959.328 145.418C959.328 142.178 960.084 139.298 961.596 136.778C963.108 134.222 965.178 132.206 967.806 130.73C970.47 129.254 973.494 128.516 976.878 128.516C979.866 128.516 982.44 129.056 984.6 130.136C986.796 131.216 988.488 132.728 989.676 134.672C990.9 136.58 991.512 138.866 991.512 141.53C991.512 144.734 990.756 147.614 989.244 150.17C987.732 152.726 985.662 154.742 983.034 156.218C980.406 157.694 977.382 158.432 973.962 158.432ZM974.502 151.52C976.158 151.52 977.616 151.124 978.876 150.332C980.172 149.504 981.18 148.37 981.9 146.93C982.62 145.49 982.98 143.816 982.98 141.908C982.98 139.964 982.404 138.398 981.252 137.21C980.1 136.022 978.48 135.428 976.392 135.428C974.736 135.428 973.26 135.842 971.964 136.67C970.704 137.462 969.696 138.578 968.94 140.018C968.22 141.458 967.86 143.132 967.86 145.04C967.86 147.02 968.436 148.604 969.588 149.792C970.74 150.944 972.378 151.52 974.502 151.52ZM996.28 158L1004.27 117.932H1012.7L1004.7 158H996.28ZM1029.86 158.432C1026.9 158.432 1024.33 157.892 1022.13 156.812C1019.94 155.732 1018.23 154.22 1017 152.276C1015.82 150.332 1015.22 148.046 1015.22 145.418C1015.22 142.178 1015.98 139.298 1017.49 136.778C1019 134.222 1021.07 132.206 1023.7 130.73C1026.36 129.254 1029.39 128.516 1032.77 128.516C1035.76 128.516 1038.33 129.056 1040.49 130.136C1042.69 131.216 1044.38 132.728 1045.57 134.672C1046.79 136.58 1047.41 138.866 1047.41 141.53C1047.41 144.734 1046.65 147.614 1045.14 150.17C1043.63 152.726 1041.56 154.742 1038.93 156.218C1036.3 157.694 1033.28 158.432 1029.86 158.432ZM1030.4 151.52C1032.05 151.52 1033.51 151.124 1034.77 150.332C1036.07 149.504 1037.07 148.37 1037.79 146.93C1038.51 145.49 1038.87 143.816 1038.87 141.908C1038.87 139.964 1038.3 138.398 1037.15 137.21C1035.99 136.022 1034.37 135.428 1032.29 135.428C1030.63 135.428 1029.15 135.842 1027.86 136.67C1026.6 137.462 1025.59 138.578 1024.83 140.018C1024.11 141.458 1023.75 143.132 1023.75 145.04C1023.75 147.02 1024.33 148.604 1025.48 149.792C1026.63 150.944 1028.27 151.52 1030.4 151.52ZM1064.59 158.432C1062.22 158.432 1060.17 157.928 1058.44 156.92C1056.71 155.876 1055.49 154.364 1054.77 152.384C1054.05 150.404 1053.97 147.956 1054.55 145.04L1057.74 128.948H1066.16L1063.08 144.5C1062.65 146.624 1062.81 148.262 1063.57 149.414C1064.36 150.566 1065.75 151.142 1067.73 151.142C1069.81 151.142 1071.56 150.53 1072.96 149.306C1074.4 148.082 1075.36 146.21 1075.83 143.69L1078.8 128.948H1087.22L1081.44 158H1073.45L1075.07 149.792L1076.26 152.276C1074.89 154.4 1073.18 155.966 1071.13 156.974C1069.08 157.946 1066.9 158.432 1064.59 158.432ZM1091.41 158L1097.18 128.948H1105.18L1103.5 137.21L1102.75 134.834C1104.04 132.494 1105.73 130.856 1107.82 129.92C1109.91 128.984 1112.41 128.516 1115.33 128.516L1113.82 136.292C1113.46 136.256 1113.11 136.238 1112.79 136.238C1112.5 136.202 1112.2 136.184 1111.87 136.184C1109.39 136.184 1107.35 136.796 1105.77 138.02C1104.22 139.244 1103.18 141.224 1102.64 143.96L1099.83 158H1091.41ZM1131.84 158.432C1128.82 158.432 1126.19 157.892 1123.96 156.812C1121.76 155.732 1120.05 154.22 1118.83 152.276C1117.61 150.332 1116.99 148.046 1116.99 145.418C1116.99 142.178 1117.71 139.298 1119.15 136.778C1120.63 134.222 1122.65 132.206 1125.2 130.73C1127.79 129.254 1130.76 128.516 1134.11 128.516C1136.96 128.516 1139.4 129.056 1141.46 130.136C1143.51 131.18 1145.09 132.656 1146.21 134.564C1147.36 136.436 1147.94 138.686 1147.94 141.314C1147.94 142.07 1147.88 142.826 1147.77 143.582C1147.7 144.338 1147.59 145.058 1147.45 145.742H1123.42L1124.28 140.828H1143.51L1140.05 142.34C1140.34 140.72 1140.25 139.37 1139.78 138.29C1139.31 137.174 1138.56 136.328 1137.51 135.752C1136.47 135.14 1135.21 134.834 1133.73 134.834C1131.9 134.834 1130.33 135.284 1129.04 136.184C1127.78 137.048 1126.82 138.254 1126.17 139.802C1125.53 141.35 1125.2 143.096 1125.2 145.04C1125.2 147.272 1125.81 148.946 1127.04 150.062C1128.3 151.142 1130.19 151.682 1132.71 151.682C1134.18 151.682 1135.61 151.448 1136.97 150.98C1138.34 150.512 1139.51 149.846 1140.48 148.982L1143.99 154.544C1142.3 155.876 1140.39 156.866 1138.27 157.514C1136.18 158.126 1134.04 158.432 1131.84 158.432ZM1165.7 158.432C1163.47 158.432 1161.4 157.928 1159.49 156.92C1157.58 155.876 1156.05 154.382 1154.9 152.438C1153.75 150.494 1153.17 148.154 1153.17 145.418C1153.17 142.97 1153.57 140.72 1154.36 138.668C1155.19 136.616 1156.34 134.834 1157.81 133.322C1159.29 131.81 1161 130.64 1162.94 129.812C1164.89 128.948 1166.98 128.516 1169.21 128.516C1171.48 128.516 1173.44 128.912 1175.09 129.704C1176.75 130.496 1178.03 131.72 1178.93 133.376C1179.86 134.996 1180.33 137.048 1180.33 139.532C1180.33 142.196 1180.01 144.68 1179.36 146.984C1178.75 149.252 1177.81 151.25 1176.55 152.978C1175.29 154.67 1173.74 156.002 1171.91 156.974C1170.11 157.946 1168.04 158.432 1165.7 158.432ZM1168.29 151.466C1169.95 151.466 1171.4 151.07 1172.66 150.278C1173.96 149.45 1174.97 148.334 1175.69 146.93C1176.44 145.49 1176.82 143.816 1176.82 141.908C1176.82 139.928 1176.23 138.362 1175.04 137.21C1173.89 136.058 1172.27 135.482 1170.18 135.482C1168.56 135.482 1167.1 135.896 1165.81 136.724C1164.51 137.516 1163.48 138.632 1162.73 140.072C1162.01 141.476 1161.65 143.132 1161.65 145.04C1161.65 147.02 1162.22 148.586 1163.38 149.738C1164.56 150.89 1166.2 151.466 1168.29 151.466ZM1174.01 158L1175.2 152.222L1177.04 143.582L1178.17 134.942L1181.57 117.932H1190L1182.01 158H1174.01ZM1210.01 158L1217.57 120.2H1232.96C1237.68 120.2 1241.31 121.226 1243.87 123.278C1246.46 125.33 1247.76 128.21 1247.76 131.918C1247.76 135.086 1247 137.84 1245.49 140.18C1244.01 142.484 1241.89 144.266 1239.12 145.526C1236.38 146.786 1233.14 147.416 1229.4 147.416H1217.08L1221.67 143.582L1218.81 158H1210.01ZM1234.31 158L1226.59 144.284H1235.77L1243.54 158H1234.31ZM1221.46 144.608L1218.43 140.45H1229.72C1232.64 140.45 1234.89 139.802 1236.47 138.506C1238.09 137.174 1238.9 135.248 1238.9 132.728C1238.9 130.892 1238.27 129.542 1237.01 128.678C1235.79 127.778 1234.06 127.328 1231.83 127.328H1221.19L1225.78 123.062L1221.46 144.608ZM1266.78 158.432C1263.76 158.432 1261.13 157.892 1258.9 156.812C1256.7 155.732 1254.99 154.22 1253.77 152.276C1252.54 150.332 1251.93 148.046 1251.93 145.418C1251.93 142.178 1252.65 139.298 1254.09 136.778C1255.57 134.222 1257.58 132.206 1260.14 130.73C1262.73 129.254 1265.7 128.516 1269.05 128.516C1271.89 128.516 1274.34 129.056 1276.39 130.136C1278.45 131.18 1280.03 132.656 1281.15 134.564C1282.3 136.436 1282.87 138.686 1282.87 141.314C1282.87 142.07 1282.82 142.826 1282.71 143.582C1282.64 144.338 1282.53 145.058 1282.39 145.742H1258.36L1259.22 140.828H1278.45L1274.99 142.34C1275.28 140.72 1275.19 139.37 1274.72 138.29C1274.25 137.174 1273.5 136.328 1272.45 135.752C1271.41 135.14 1270.15 134.834 1268.67 134.834C1266.84 134.834 1265.27 135.284 1263.97 136.184C1262.71 137.048 1261.76 138.254 1261.11 139.802C1260.46 141.35 1260.14 143.096 1260.14 145.04C1260.14 147.272 1260.75 148.946 1261.98 150.062C1263.24 151.142 1265.13 151.682 1267.65 151.682C1269.12 151.682 1270.54 151.448 1271.91 150.98C1273.28 150.512 1274.45 149.846 1275.42 148.982L1278.93 154.544C1277.24 155.876 1275.33 156.866 1273.21 157.514C1271.12 158.126 1268.98 158.432 1266.78 158.432ZM1310.09 128.516C1312.57 128.516 1314.68 129.038 1316.41 130.082C1318.13 131.09 1319.36 132.584 1320.08 134.564C1320.8 136.544 1320.87 138.992 1320.29 141.908L1317.05 158H1308.63L1311.76 142.448C1312.19 140.324 1312.01 138.686 1311.22 137.534C1310.47 136.382 1309.06 135.806 1307.01 135.806C1304.89 135.806 1303.1 136.418 1301.66 137.642C1300.26 138.866 1299.29 140.738 1298.75 143.258L1295.83 158H1287.41L1293.19 128.948H1301.18L1299.5 137.156L1298.32 134.672C1299.72 132.548 1301.45 131 1303.5 130.028C1305.59 129.02 1307.78 128.516 1310.09 128.516ZM1340.24 158.432C1338.01 158.432 1335.94 157.928 1334.03 156.92C1332.12 155.876 1330.59 154.382 1329.44 152.438C1328.29 150.494 1327.71 148.154 1327.71 145.418C1327.71 142.97 1328.11 140.72 1328.9 138.668C1329.73 136.616 1330.88 134.834 1332.35 133.322C1333.83 131.81 1335.54 130.64 1337.48 129.812C1339.43 128.948 1341.52 128.516 1343.75 128.516C1346.02 128.516 1347.98 128.912 1349.63 129.704C1351.29 130.496 1352.57 131.72 1353.47 133.376C1354.4 134.996 1354.87 137.048 1354.87 139.532C1354.87 142.196 1354.55 144.68 1353.9 146.984C1353.29 149.252 1352.35 151.25 1351.09 152.978C1349.83 154.67 1348.28 156.002 1346.45 156.974C1344.65 157.946 1342.58 158.432 1340.24 158.432ZM1342.83 151.466C1344.49 151.466 1345.94 151.07 1347.2 150.278C1348.5 149.45 1349.51 148.334 1350.23 146.93C1350.98 145.49 1351.36 143.816 1351.36 141.908C1351.36 139.928 1350.77 138.362 1349.58 137.21C1348.43 136.058 1346.81 135.482 1344.72 135.482C1343.1 135.482 1341.64 135.896 1340.35 136.724C1339.05 137.516 1338.02 138.632 1337.27 140.072C1336.55 141.476 1336.19 143.132 1336.19 145.04C1336.19 147.02 1336.76 148.586 1337.92 149.738C1339.1 150.89 1340.74 151.466 1342.83 151.466ZM1348.55 158L1349.74 152.222L1351.58 143.582L1352.71 134.942L1356.11 117.932H1364.54L1356.55 158H1348.55ZM1382 158.432C1378.98 158.432 1376.35 157.892 1374.12 156.812C1371.92 155.732 1370.21 154.22 1368.99 152.276C1367.76 150.332 1367.15 148.046 1367.15 145.418C1367.15 142.178 1367.87 139.298 1369.31 136.778C1370.79 134.222 1372.8 132.206 1375.36 130.73C1377.95 129.254 1380.92 128.516 1384.27 128.516C1387.11 128.516 1389.56 129.056 1391.61 130.136C1393.67 131.18 1395.25 132.656 1396.37 134.564C1397.52 136.436 1398.09 138.686 1398.09 141.314C1398.09 142.07 1398.04 142.826 1397.93 143.582C1397.86 144.338 1397.75 145.058 1397.61 145.742H1373.58L1374.44 140.828H1393.67L1390.21 142.34C1390.5 140.72 1390.41 139.37 1389.94 138.29C1389.47 137.174 1388.72 136.328 1387.67 135.752C1386.63 135.14 1385.37 134.834 1383.89 134.834C1382.06 134.834 1380.49 135.284 1379.19 136.184C1377.93 137.048 1376.98 138.254 1376.33 139.802C1375.68 141.35 1375.36 143.096 1375.36 145.04C1375.36 147.272 1375.97 148.946 1377.2 150.062C1378.46 151.142 1380.35 151.682 1382.87 151.682C1384.34 151.682 1385.76 151.448 1387.13 150.98C1388.5 150.512 1389.67 149.846 1390.64 148.982L1394.15 154.544C1392.46 155.876 1390.55 156.866 1388.43 157.514C1386.34 158.126 1384.2 158.432 1382 158.432ZM1402.63 158L1408.4 128.948H1416.4L1414.72 137.21L1413.97 134.834C1415.26 132.494 1416.95 130.856 1419.04 129.92C1421.13 128.984 1423.63 128.516 1426.55 128.516L1425.04 136.292C1424.68 136.256 1424.33 136.238 1424.01 136.238C1423.72 136.202 1423.42 136.184 1423.09 136.184C1420.61 136.184 1418.57 136.796 1416.99 138.02C1415.44 139.244 1414.4 141.224 1413.86 143.96L1411.05 158H1402.63ZM1438.63 158.432C1436.07 158.432 1433.66 158.144 1431.39 157.568C1429.16 156.992 1427.43 156.272 1426.21 155.408L1429.45 149.306C1430.71 150.134 1432.24 150.8 1434.04 151.304C1435.87 151.808 1437.71 152.06 1439.54 152.06C1441.52 152.06 1442.96 151.808 1443.86 151.304C1444.76 150.8 1445.21 150.116 1445.21 149.252C1445.21 148.568 1444.84 148.064 1444.08 147.74C1443.32 147.38 1442.37 147.092 1441.22 146.876C1440.07 146.66 1438.82 146.408 1437.49 146.12C1436.2 145.832 1434.95 145.436 1433.77 144.932C1432.61 144.392 1431.66 143.636 1430.9 142.664C1430.18 141.656 1429.82 140.342 1429.82 138.722C1429.82 136.526 1430.44 134.672 1431.66 133.16C1432.92 131.648 1434.65 130.496 1436.84 129.704C1439.08 128.912 1441.6 128.516 1444.4 128.516C1446.42 128.516 1448.38 128.732 1450.29 129.164C1452.2 129.596 1453.82 130.19 1455.15 130.946L1452.13 137.102C1450.76 136.238 1449.32 135.662 1447.81 135.374C1446.33 135.05 1444.91 134.888 1443.54 134.888C1441.56 134.888 1440.12 135.176 1439.22 135.752C1438.36 136.292 1437.92 136.958 1437.92 137.75C1437.92 138.434 1438.28 138.974 1439 139.37C1439.76 139.73 1440.71 140.036 1441.87 140.288C1443.02 140.504 1444.26 140.756 1445.59 141.044C1446.92 141.296 1448.17 141.692 1449.32 142.232C1450.47 142.736 1451.41 143.474 1452.13 144.446C1452.88 145.382 1453.26 146.66 1453.26 148.28C1453.26 150.476 1452.61 152.348 1451.32 153.896C1450.06 155.408 1448.33 156.542 1446.13 157.298C1443.94 158.054 1441.43 158.432 1438.63 158.432ZM876.219 215.738C875.031 215.738 873.951 215.468 872.979 214.928C872.007 214.388 871.233 213.65 870.657 212.714C870.081 211.742 869.793 210.644 869.793 209.42C869.793 207.98 870.117 206.72 870.765 205.64C871.413 204.56 872.277 203.714 873.357 203.102C874.437 202.454 875.661 202.13 877.029 202.13C878.217 202.13 879.279 202.4 880.215 202.94C881.187 203.48 881.961 204.218 882.537 205.154C883.113 206.09 883.401 207.17 883.401 208.394C883.401 209.798 883.077 211.058 882.429 212.174C881.781 213.29 880.917 214.172 879.837 214.82C878.757 215.432 877.551 215.738 876.219 215.738ZM918.566 224L926.126 186.2H934.928L928.772 216.872H947.726L946.268 224H918.566ZM952.776 224L958.554 194.948H966.924L961.146 224H952.776ZM964.17 190.898C962.694 190.898 961.506 190.484 960.606 189.656C959.706 188.792 959.256 187.748 959.256 186.524C959.256 185.084 959.76 183.896 960.768 182.96C961.812 181.988 963.162 181.502 964.818 181.502C966.294 181.502 967.482 181.916 968.382 182.744C969.318 183.536 969.786 184.526 969.786 185.714C969.786 187.262 969.264 188.522 968.22 189.494C967.212 190.43 965.862 190.898 964.17 190.898ZM984.247 224.432C982.015 224.432 979.945 223.928 978.037 222.92C976.129 221.876 974.599 220.382 973.447 218.438C972.295 216.494 971.719 214.154 971.719 211.418C971.719 208.97 972.115 206.72 972.907 204.668C973.735 202.616 974.887 200.834 976.363 199.322C977.839 197.81 979.549 196.64 981.493 195.812C983.437 194.948 985.525 194.516 987.757 194.516C990.169 194.516 992.239 194.966 993.967 195.866C995.695 196.766 996.973 198.17 997.801 200.078C998.665 201.95 998.971 204.38 998.719 207.368C998.539 210.788 997.837 213.794 996.613 216.386C995.389 218.942 993.733 220.922 991.645 222.326C989.593 223.73 987.127 224.432 984.247 224.432ZM986.839 217.466C988.495 217.466 989.953 217.07 991.213 216.278C992.509 215.45 993.517 214.334 994.237 212.93C994.993 211.49 995.371 209.816 995.371 207.908C995.371 205.928 994.777 204.362 993.589 203.21C992.437 202.058 990.817 201.482 988.729 201.482C987.109 201.482 985.651 201.896 984.355 202.724C983.059 203.516 982.033 204.632 981.277 206.072C980.557 207.476 980.197 209.132 980.197 211.04C980.197 213.02 980.773 214.586 981.925 215.738C983.113 216.89 984.751 217.466 986.839 217.466ZM990.079 234.476L993.319 218.114L995.587 209.636L997.045 201.428L998.341 194.948H1006.39L998.503 234.476H990.079ZM1022.99 224.432C1020.61 224.432 1018.56 223.928 1016.83 222.92C1015.1 221.876 1013.88 220.364 1013.16 218.384C1012.44 216.404 1012.37 213.956 1012.94 211.04L1016.13 194.948H1024.55L1021.48 210.5C1021.04 212.624 1021.21 214.262 1021.96 215.414C1022.75 216.566 1024.14 217.142 1026.12 217.142C1028.21 217.142 1029.95 216.53 1031.36 215.306C1032.8 214.082 1033.75 212.21 1034.22 209.69L1037.19 194.948H1045.61L1039.84 224H1031.84L1033.46 215.792L1034.65 218.276C1033.28 220.4 1031.57 221.966 1029.52 222.974C1027.47 223.946 1025.29 224.432 1022.99 224.432ZM1049.8 224L1055.58 194.948H1063.95L1058.17 224H1049.8ZM1061.19 190.898C1059.72 190.898 1058.53 190.484 1057.63 189.656C1056.73 188.792 1056.28 187.748 1056.28 186.524C1056.28 185.084 1056.78 183.896 1057.79 182.96C1058.84 181.988 1060.19 181.502 1061.84 181.502C1063.32 181.502 1064.51 181.916 1065.41 182.744C1066.34 183.536 1066.81 184.526 1066.81 185.714C1066.81 187.262 1066.29 188.522 1065.24 189.494C1064.24 190.43 1062.89 190.898 1061.19 190.898ZM1081.38 224.432C1079.15 224.432 1077.08 223.928 1075.17 222.92C1073.26 221.876 1071.73 220.382 1070.58 218.438C1069.43 216.494 1068.85 214.154 1068.85 211.418C1068.85 208.97 1069.25 206.72 1070.04 204.668C1070.87 202.616 1072.02 200.834 1073.5 199.322C1074.97 197.81 1076.68 196.64 1078.63 195.812C1080.57 194.948 1082.66 194.516 1084.89 194.516C1087.16 194.516 1089.12 194.912 1090.78 195.704C1092.43 196.496 1093.71 197.72 1094.61 199.376C1095.55 200.996 1096.01 203.048 1096.01 205.532C1096.01 208.196 1095.69 210.68 1095.04 212.984C1094.43 215.252 1093.49 217.25 1092.23 218.978C1090.97 220.67 1089.43 222.002 1087.59 222.974C1085.79 223.946 1083.72 224.432 1081.38 224.432ZM1083.97 217.466C1085.63 217.466 1087.09 217.07 1088.35 216.278C1089.64 215.45 1090.65 214.334 1091.37 212.93C1092.13 211.49 1092.5 209.816 1092.5 207.908C1092.5 205.928 1091.91 204.362 1090.72 203.21C1089.57 202.058 1087.95 201.482 1085.86 201.482C1084.24 201.482 1082.78 201.896 1081.49 202.724C1080.19 203.516 1079.17 204.632 1078.41 206.072C1077.69 207.476 1077.33 209.132 1077.33 211.04C1077.33 213.02 1077.91 214.586 1079.06 215.738C1080.25 216.89 1081.88 217.466 1083.97 217.466ZM1089.7 224L1090.88 218.222L1092.72 209.582L1093.85 200.942L1097.26 183.932H1105.68L1097.69 224H1089.7ZM1138.87 224.648C1136.82 224.648 1134.82 224.45 1132.87 224.054C1130.97 223.694 1129.22 223.19 1127.64 222.542C1126.09 221.894 1124.77 221.192 1123.69 220.436L1127.26 213.686C1128.45 214.514 1129.71 215.234 1131.04 215.846C1132.41 216.422 1133.83 216.872 1135.3 217.196C1136.78 217.484 1138.26 217.628 1139.73 217.628C1141.35 217.628 1142.74 217.448 1143.89 217.088C1145.08 216.728 1145.98 216.224 1146.59 215.576C1147.24 214.928 1147.56 214.136 1147.56 213.2C1147.56 212.336 1147.22 211.634 1146.54 211.094C1145.85 210.554 1144.95 210.104 1143.84 209.744C1142.76 209.348 1141.55 208.97 1140.22 208.61C1138.89 208.25 1137.54 207.836 1136.17 207.368C1134.84 206.864 1133.61 206.252 1132.5 205.532C1131.42 204.776 1130.53 203.822 1129.85 202.67C1129.17 201.518 1128.82 200.078 1128.82 198.35C1128.82 195.758 1129.53 193.508 1130.93 191.6C1132.37 189.692 1134.39 188.216 1136.98 187.172C1139.57 186.092 1142.61 185.552 1146.1 185.552C1148.66 185.552 1151.07 185.84 1153.34 186.416C1155.61 186.956 1157.55 187.748 1159.17 188.792L1155.88 195.488C1154.44 194.516 1152.84 193.796 1151.07 193.328C1149.31 192.824 1147.49 192.572 1145.62 192.572C1143.93 192.572 1142.47 192.77 1141.24 193.166C1140.06 193.562 1139.14 194.12 1138.49 194.84C1137.88 195.524 1137.57 196.316 1137.57 197.216C1137.57 198.116 1137.9 198.854 1138.54 199.43C1139.23 199.97 1140.13 200.438 1141.24 200.834C1142.36 201.194 1143.58 201.554 1144.92 201.914C1146.25 202.274 1147.58 202.688 1148.91 203.156C1150.24 203.624 1151.47 204.218 1152.58 204.938C1153.7 205.658 1154.6 206.576 1155.28 207.692C1155.97 208.772 1156.31 210.14 1156.31 211.796C1156.31 214.388 1155.59 216.656 1154.15 218.6C1152.71 220.508 1150.68 222.002 1148.05 223.082C1145.46 224.126 1142.4 224.648 1138.87 224.648ZM1177.08 224.432C1174.1 224.432 1171.49 223.892 1169.25 222.812C1167.06 221.732 1165.35 220.22 1164.12 218.276C1162.9 216.332 1162.29 214.046 1162.29 211.418C1162.29 208.178 1163.04 205.298 1164.56 202.778C1166.07 200.222 1168.16 198.206 1170.82 196.73C1173.48 195.254 1176.54 194.516 1180 194.516C1183.1 194.516 1185.78 195.164 1188.05 196.46C1190.31 197.72 1191.99 199.52 1193.07 201.86L1185.94 205.424C1185.33 204.056 1184.46 203.066 1183.35 202.454C1182.27 201.806 1180.97 201.482 1179.46 201.482C1177.8 201.482 1176.33 201.896 1175.03 202.724C1173.74 203.516 1172.71 204.632 1171.95 206.072C1171.2 207.476 1170.82 209.114 1170.82 210.986C1170.82 212.966 1171.4 214.55 1172.55 215.738C1173.74 216.89 1175.41 217.466 1177.57 217.466C1179.05 217.466 1180.4 217.16 1181.62 216.548C1182.84 215.9 1183.87 214.91 1184.7 213.578L1190.91 217.466C1189.54 219.662 1187.63 221.372 1185.18 222.596C1182.77 223.82 1180.07 224.432 1177.08 224.432ZM1195.81 224L1201.59 194.948H1209.58L1207.91 203.21L1207.15 200.834C1208.45 198.494 1210.14 196.856 1212.23 195.92C1214.32 194.984 1216.82 194.516 1219.73 194.516L1218.22 202.292C1217.86 202.256 1217.52 202.238 1217.2 202.238C1216.91 202.202 1216.6 202.184 1216.28 202.184C1213.79 202.184 1211.76 202.796 1210.18 204.02C1208.63 205.244 1207.58 207.224 1207.04 209.96L1204.24 224H1195.81ZM1236.25 224.432C1233.23 224.432 1230.6 223.892 1228.37 222.812C1226.17 221.732 1224.46 220.22 1223.24 218.276C1222.01 216.332 1221.4 214.046 1221.4 211.418C1221.4 208.178 1222.12 205.298 1223.56 202.778C1225.04 200.222 1227.05 198.206 1229.61 196.73C1232.2 195.254 1235.17 194.516 1238.52 194.516C1241.36 194.516 1243.81 195.056 1245.86 196.136C1247.91 197.18 1249.5 198.656 1250.61 200.564C1251.77 202.436 1252.34 204.686 1252.34 207.314C1252.34 208.07 1252.29 208.826 1252.18 209.582C1252.11 210.338 1252 211.058 1251.86 211.742H1227.83L1228.69 206.828H1247.91L1244.46 208.34C1244.75 206.72 1244.66 205.37 1244.19 204.29C1243.72 203.174 1242.96 202.328 1241.92 201.752C1240.88 201.14 1239.62 200.834 1238.14 200.834C1236.3 200.834 1234.74 201.284 1233.44 202.184C1232.18 203.048 1231.23 204.254 1230.58 205.802C1229.93 207.35 1229.61 209.096 1229.61 211.04C1229.61 213.272 1230.22 214.946 1231.44 216.062C1232.7 217.142 1234.59 217.682 1237.11 217.682C1238.59 217.682 1240.01 217.448 1241.38 216.98C1242.75 216.512 1243.92 215.846 1244.89 214.982L1248.4 220.544C1246.71 221.876 1244.8 222.866 1242.68 223.514C1240.59 224.126 1238.45 224.432 1236.25 224.432ZM1272.32 224.432C1269.29 224.432 1266.67 223.892 1264.43 222.812C1262.24 221.732 1260.53 220.22 1259.3 218.276C1258.08 216.332 1257.47 214.046 1257.47 211.418C1257.47 208.178 1258.19 205.298 1259.63 202.778C1261.1 200.222 1263.12 198.206 1265.68 196.73C1268.27 195.254 1271.24 194.516 1274.59 194.516C1277.43 194.516 1279.88 195.056 1281.93 196.136C1283.98 197.18 1285.57 198.656 1286.68 200.564C1287.83 202.436 1288.41 204.686 1288.41 207.314C1288.41 208.07 1288.36 208.826 1288.25 209.582C1288.18 210.338 1288.07 211.058 1287.92 211.742H1263.89L1264.76 206.828H1283.98L1280.53 208.34C1280.81 206.72 1280.72 205.37 1280.26 204.29C1279.79 203.174 1279.03 202.328 1277.99 201.752C1276.94 201.14 1275.68 200.834 1274.21 200.834C1272.37 200.834 1270.81 201.284 1269.51 202.184C1268.25 203.048 1267.3 204.254 1266.65 205.802C1266 207.35 1265.68 209.096 1265.68 211.04C1265.68 213.272 1266.29 214.946 1267.51 216.062C1268.77 217.142 1270.66 217.682 1273.18 217.682C1274.66 217.682 1276.08 217.448 1277.45 216.98C1278.82 216.512 1279.99 215.846 1280.96 214.982L1284.47 220.544C1282.78 221.876 1280.87 222.866 1278.74 223.514C1276.66 224.126 1274.51 224.432 1272.32 224.432ZM1306.17 224.432C1303.94 224.432 1301.87 223.928 1299.96 222.92C1298.05 221.876 1296.52 220.382 1295.37 218.438C1294.22 216.494 1293.64 214.154 1293.64 211.418C1293.64 208.97 1294.04 206.72 1294.83 204.668C1295.66 202.616 1296.81 200.834 1298.29 199.322C1299.76 197.81 1301.47 196.64 1303.42 195.812C1305.36 194.948 1307.45 194.516 1309.68 194.516C1311.95 194.516 1313.91 194.912 1315.57 195.704C1317.22 196.496 1318.5 197.72 1319.4 199.376C1320.34 200.996 1320.81 203.048 1320.81 205.532C1320.81 208.196 1320.48 210.68 1319.83 212.984C1319.22 215.252 1318.29 217.25 1317.03 218.978C1315.77 220.67 1314.22 222.002 1312.38 222.974C1310.58 223.946 1308.51 224.432 1306.17 224.432ZM1308.76 217.466C1310.42 217.466 1311.88 217.07 1313.14 216.278C1314.43 215.45 1315.44 214.334 1316.16 212.93C1316.92 211.49 1317.3 209.816 1317.3 207.908C1317.3 205.928 1316.7 204.362 1315.51 203.21C1314.36 202.058 1312.74 201.482 1310.65 201.482C1309.03 201.482 1307.58 201.896 1306.28 202.724C1304.98 203.516 1303.96 204.632 1303.2 206.072C1302.48 207.476 1302.12 209.132 1302.12 211.04C1302.12 213.02 1302.7 214.586 1303.85 215.738C1305.04 216.89 1306.68 217.466 1308.76 217.466ZM1314.49 224L1315.68 218.222L1317.51 209.582L1318.65 200.942L1322.05 183.932H1330.47L1322.48 224H1314.49Z" fill="#101F6A"/>
<path d="M231.35 145V40H261.05V145H231.35ZM292.68 145V40H340.68C350.28 40 358.53 41.55 365.43 44.65C372.43 47.75 377.83 52.25 381.63 58.15C385.43 63.95 387.33 70.85 387.33 78.85C387.33 86.75 385.43 93.6 381.63 99.4C377.83 105.1 372.43 109.5 365.43 112.6C358.53 115.6 350.28 117.1 340.68 117.1H309.18L322.38 104.65V145H292.68ZM357.63 145L331.53 106.75H363.18L389.43 145H357.63ZM322.38 107.8L309.18 94.15H338.88C345.08 94.15 349.68 92.8 352.68 90.1C355.78 87.4 357.33 83.65 357.33 78.85C357.33 73.95 355.78 70.15 352.68 67.45C349.68 64.75 345.08 63.4 338.88 63.4H309.18L322.38 49.75V107.8ZM440.165 145L406.115 40H436.715L465.365 130.9H449.915L480.065 40H507.365L535.865 130.9H521.015L550.565 40H578.915L544.865 145H513.065L488.765 67.75H497.315L471.965 145H440.165ZM600.057 145V40H629.757V145H600.057ZM661.387 145V40H685.837L743.737 109.9H732.187V40H761.287V145H736.837L678.937 75.1H690.487V145H661.387Z" fill="#2E3383"/>
<path d="M232.242 217.189L232.242 161.189L255.282 161.189C260.242 161.189 264.482 161.989 268.002 163.589C271.575 165.189 274.322 167.483 276.242 170.469C278.162 173.456 279.122 177.003 279.122 181.109C279.122 185.216 278.162 188.763 276.242 191.749C274.322 194.736 271.575 197.029 268.002 198.629C264.482 200.229 260.242 201.029 255.282 201.029L238.002 201.029L242.642 196.149L242.642 217.189L232.242 217.189ZM242.642 197.269L238.002 192.229L254.802 192.229C259.389 192.229 262.829 191.269 265.122 189.349C267.469 187.376 268.642 184.629 268.642 181.109C268.642 177.536 267.469 174.789 265.122 172.869C262.829 170.949 259.389 169.989 254.802 169.989L238.002 169.989L242.642 164.869L242.642 197.269ZM291.107 217.189L291.107 161.189L301.507 161.189L301.507 208.389L330.787 208.389L330.787 217.189L291.107 217.189ZM332.756 217.189L357.956 161.189L368.196 161.189L393.476 217.189L382.596 217.189L360.916 166.709L365.076 166.709L343.476 217.189L332.756 217.189ZM344.356 204.229L347.156 196.069L377.396 196.069L380.196 204.229L344.356 204.229ZM419.558 217.989C415.185 217.989 410.998 217.376 406.998 216.149C402.998 214.869 399.825 213.243 397.478 211.269L401.078 203.189C403.318 204.949 406.091 206.416 409.398 207.589C412.705 208.763 416.091 209.349 419.558 209.349C422.491 209.349 424.865 209.029 426.678 208.389C428.491 207.749 429.825 206.896 430.678 205.829C431.531 204.709 431.958 203.456 431.958 202.069C431.958 200.363 431.345 199.003 430.118 197.989C428.891 196.923 427.291 196.096 425.318 195.509C423.398 194.869 421.238 194.283 418.838 193.749C416.491 193.216 414.118 192.603 411.718 191.909C409.371 191.163 407.211 190.229 405.238 189.109C403.318 187.936 401.745 186.389 400.518 184.469C399.291 182.549 398.678 180.096 398.678 177.109C398.678 174.069 399.478 171.296 401.078 168.789C402.731 166.229 405.211 164.203 408.518 162.709C411.878 161.163 416.118 160.389 421.238 160.389C424.598 160.389 427.931 160.816 431.238 161.669C434.545 162.523 437.425 163.749 439.878 165.349L436.598 173.429C434.091 171.936 431.505 170.843 428.838 170.149C426.171 169.403 423.611 169.029 421.158 169.029C418.278 169.029 415.931 169.376 414.118 170.069C412.358 170.763 411.051 171.669 410.198 172.789C409.398 173.909 408.998 175.189 408.998 176.629C408.998 178.336 409.585 179.723 410.758 180.789C411.985 181.803 413.558 182.603 415.478 183.189C417.451 183.776 419.638 184.363 422.038 184.949C424.438 185.483 426.811 186.096 429.158 186.789C431.558 187.483 433.718 188.389 435.638 189.509C437.611 190.629 439.185 192.149 440.358 194.069C441.585 195.989 442.198 198.416 442.198 201.349C442.198 204.336 441.371 207.109 439.718 209.669C438.118 212.176 435.638 214.203 432.278 215.749C428.918 217.243 424.678 217.989 419.558 217.989ZM464.689 217.189L464.689 169.989L446.129 169.989L446.129 161.189L493.649 161.189L493.649 169.989L475.089 169.989L475.089 217.189L464.689 217.189ZM512.654 184.469L540.494 184.469L540.494 193.029L512.654 193.029L512.654 184.469ZM513.454 208.469L545.054 208.469L545.054 217.189L503.054 217.189L503.054 161.189L543.934 161.189L543.934 169.909L513.454 169.909L513.454 208.469ZM558.248 217.189L558.248 161.189L581.288 161.189C586.248 161.189 590.488 161.989 594.008 163.589C597.581 165.189 600.328 167.483 602.248 170.469C604.168 173.456 605.128 177.003 605.128 181.109C605.128 185.216 604.168 188.763 602.248 191.749C600.328 194.683 597.581 196.949 594.008 198.549C590.488 200.096 586.248 200.869 581.288 200.869L564.008 200.869L568.648 196.149L568.648 217.189L558.248 217.189ZM594.888 217.189L580.728 196.869L591.848 196.869L606.088 217.189L594.888 217.189ZM568.648 197.269L564.008 192.309L580.808 192.309C585.395 192.309 588.835 191.323 591.128 189.349C593.475 187.376 594.648 184.629 594.648 181.109C594.648 177.536 593.475 174.789 591.128 172.869C588.835 170.949 585.395 169.989 580.808 169.989L564.008 169.989L568.648 164.869L568.648 197.269ZM618.364 217.189L618.364 161.189L628.764 161.189L628.764 217.189L618.364 217.189ZM645.511 217.189L645.511 161.189L654.071 161.189L689.191 204.309L684.951 204.309L684.951 161.189L695.271 161.189L695.271 217.189L686.711 217.189L651.591 174.069L655.831 174.069L655.831 217.189L645.511 217.189ZM738.036 217.989C733.663 217.989 729.636 217.296 725.956 215.909C722.33 214.469 719.156 212.469 716.436 209.909C713.716 207.296 711.61 204.229 710.116 200.709C708.623 197.189 707.876 193.349 707.876 189.189C707.876 185.029 708.623 181.189 710.116 177.669C711.61 174.149 713.716 171.109 716.436 168.549C719.21 165.936 722.436 163.936 726.116 162.549C729.796 161.109 733.823 160.389 738.196 160.389C742.943 160.389 747.21 161.163 750.996 162.709C754.836 164.256 758.063 166.523 760.676 169.509L754.116 175.909C751.93 173.723 749.556 172.123 746.996 171.109C744.49 170.043 741.716 169.509 738.676 169.509C735.743 169.509 733.023 169.989 730.516 170.949C728.01 171.909 725.85 173.269 724.036 175.029C722.223 176.789 720.81 178.869 719.796 181.269C718.836 183.669 718.356 186.309 718.356 189.189C718.356 192.016 718.836 194.629 719.796 197.029C720.81 199.429 722.223 201.536 724.036 203.349C725.85 205.109 727.983 206.469 730.436 207.429C732.89 208.389 735.61 208.869 738.596 208.869C741.37 208.869 744.036 208.443 746.596 207.589C749.21 206.683 751.69 205.189 754.036 203.109L759.956 210.869C757.023 213.216 753.61 215.003 749.716 216.229C745.876 217.403 741.983 217.989 738.036 217.989ZM750.116 209.509L750.116 188.549L759.956 188.549L759.956 210.869L750.116 209.509Z" fill="#0683CB"/>
<path d="M772.442 239.688C773.823 239.685 774.94 238.564 774.938 237.183C774.935 235.802 773.814 234.685 772.433 234.688L772.442 239.688ZM218.442 240.689L772.442 239.688L772.433 234.688L218.433 235.689L218.442 240.689Z" fill="#101F6A"/>
<path d="M206.438 239.189L218.438 235.689V240.689L206.438 239.189Z" fill="#101F6A"/>
<path d="M18.4375 241.781L69.2718 220.355L113.804 210.272M113.804 210.272C113.804 210.272 140.421 213.017 160.437 215.314M113.804 210.272L105.402 193.467L118.426 181.284L123.467 186.325L141.952 167L206.65 238.84L178.923 251.444L183.544 257.325L159.597 260.686L141.952 244.722M178.082 250.603L158.757 228.337M45.325 263.207L58.7688 275.811L82.7155 257.325L109.603 256.065M112.964 251.444C110.731 254.284 109.41 255.844 109.603 259.846C110.44 263.01 111.962 264.108 114.645 266.568C119.266 268.248 121.381 264.345 124.307 261.106M123.467 258.586L126.828 259.846H128.508L130.189 259.426L131.449 258.586L132.71 256.905L133.13 253.544M133.13 253.544L131.029 243.041M133.13 253.544L136.491 255.225H138.171L140.272 254.385L141.952 253.544L142.792 251.444L141.952 247.663L140.692 236.74" stroke="#101F6A" stroke-width="4"/>
<path d="M159.598 215.316C165.476 215.159 181.306 228.096 160.858 228.34" stroke="#101F6A" stroke-width="5"/>
<path d="M136.49 228.338H161.277" stroke="#101F6A" stroke-width="5"/>
<path d="M131.029 226.684L137.331 226.264V230.465L133.97 229.625L131.029 226.684Z" fill="#101F6A"/>
<path d="M110.46 235.547L123.467 248.923L120.512 250.614L110.46 235.547Z" fill="#101F6A"/>
<path d="M62.2222 251.19L45.2342 265.806L42.3835 263.628L62.2222 251.19Z" fill="#101F6A"/>
<path d="M119.684 227.916L132.708 242.621L129.349 243.335L119.684 227.916Z" fill="#101F6A"/>
<path d="M127.12 223.09L141.951 236.741L139.011 237.16L127.12 223.09Z" fill="#101F6A"/>
<path d="M127.12 223.09L141.951 236.741L139.011 237.16L127.12 223.09Z" fill="#101F6A"/>
<path d="M128.079 189.694L147.414 212.794L143.432 213.077L128.079 189.694Z" fill="#101F6A"/>
<path d="M121.809 248.971L123.886 262.367" stroke="#101F6A" stroke-width="4"/>
<path d="M115.064 248.924L114.127 252.608L111.283 251.024L115.064 248.924Z" fill="#101F6A"/>
<rect x="17.4375" y="216" width="33" height="65" fill="white"/>
</svg>
