<?xml version="1.0" encoding="utf-8"?>
<!-- Generator: Adobe Illustrator 27.7.0, SVG Export Plug-In . SVG Version: 6.00 Build 0)  -->
<svg version="1.1" id="Layer_1" xmlns="http://www.w3.org/2000/svg" xmlns:xlink="http://www.w3.org/1999/xlink" x="0px" y="0px"
	 viewBox="0 0 799 291" style="enable-background:new 0 0 799 291;" xml:space="preserve">
<style type="text/css">
	.st0{fill:#E18341;}
	.st1{fill:#FFFFFF;}
	.st2{fill:#2E3383;}
	.st3{fill:#0683CB;}
	.st4{fill:#101F6A;}
	.st5{fill:none;stroke:#101F6A;stroke-width:4;}
	.st6{fill:none;stroke:#101F6A;stroke-width:5;}
</style>
<rect x="50.5" y="123.6" transform="matrix(1 -3.651046e-03 3.651046e-03 1 -0.5238 0.2526)" class="st0" width="36.8" height="40"/>
<rect x="93.5" y="123.6" transform="matrix(1 -3.651046e-03 3.651046e-03 1 -0.5233 0.4956)" class="st0" width="84" height="40"/>
<rect x="50.6" y="168.7" transform="matrix(1 -3.651046e-03 3.651046e-03 1 -0.6885 0.3278)" class="st0" width="77.6" height="40"/>
<rect x="50.3" y="33.3" transform="matrix(1 -3.651046e-03 3.651046e-03 1 -0.194 0.2482)" class="st0" width="35.1" height="40"/>
<rect x="91.6" y="33.3" transform="matrix(1 -3.651046e-03 3.651046e-03 1 -0.1935 0.488)" class="st0" width="84" height="40"/>
<rect x="181.7" y="33.3" transform="matrix(1 -3.651046e-03 3.651046e-03 1 -0.1929 0.8171)" class="st0" width="84" height="40"/>
<rect x="50.5" y="78.4" transform="matrix(1 -3.651046e-03 3.651046e-03 1 -0.3588 0.3281)" class="st0" width="78.4" height="40"/>
<rect x="135" y="78.4" transform="matrix(1 -3.651046e-03 3.651046e-03 1 -0.3582 0.6469)" class="st0" width="84" height="40"/>
<path class="st1" d="M277.3,42.8c20.6,46.3,33.6,107.4-26.4,134.1c-60,26.6-125.5,95.9-192,80.7c-11.5-127.8,83.8-48.8,100-155.5
	C160.7,38.1,256.8-3.5,277.3,42.8z"/>
<path class="st2" d="M231.4,145V40H261v105H231.4z M292.7,145V40h48c9.6,0,17.9,1.5,24.8,4.7c7,3.1,12.4,7.6,16.2,13.5
	c3.8,5.8,5.7,12.7,5.7,20.7c0,7.9-1.9,14.8-5.7,20.6c-3.8,5.7-9.2,10.1-16.2,13.2c-6.9,3-15.1,4.5-24.8,4.5h-31.5l13.2-12.4V145
	H292.7z M357.6,145l-26.1-38.2h31.6l26.2,38.2H357.6z M322.4,107.8l-13.2-13.7h29.7c6.2,0,10.8-1.3,13.8-4.1
	c3.1-2.7,4.6-6.4,4.6-11.2c0-4.9-1.5-8.7-4.6-11.4c-3-2.7-7.6-4-13.8-4h-29.7l13.2-13.7V107.8z M440.2,145L406.1,40h30.6l28.6,90.9
	h-15.4L480.1,40h27.3l28.5,90.9H521L550.6,40h28.3l-34,105h-31.8l-24.3-77.2h8.5L472,145H440.2z M600.1,145V40h29.7v105H600.1z
	 M661.4,145V40h24.4l57.9,69.9h-11.5V40h29.1v105h-24.5l-57.9-69.9h11.5V145H661.4z"/>
<path class="st3" d="M232.2,211.2v-56h23c5,0,9.2,0.8,12.7,2.4c3.6,1.6,6.3,3.9,8.2,6.9c1.9,3,2.9,6.5,2.9,10.6
	c0,4.1-1,7.7-2.9,10.6c-1.9,3-4.7,5.3-8.2,6.9c-3.5,1.6-7.8,2.4-12.7,2.4H238l4.6-4.9v21H232.2z M242.6,191.3l-4.6-5h16.8
	c4.6,0,8-1,10.3-2.9c2.3-2,3.5-4.7,3.5-8.2c0-3.6-1.2-6.3-3.5-8.2c-2.3-1.9-5.7-2.9-10.3-2.9H238l4.6-5.1V191.3z M291.1,211.2v-56
	h10.4v47.2h29.3v8.8H291.1z M332.8,211.2l25.2-56h10.2l25.3,56h-10.9l-21.7-50.5h4.2l-21.6,50.5H332.8z M344.4,198.2l2.8-8.2h30.2
	l2.8,8.2H344.4z M419.6,212c-4.4,0-8.6-0.6-12.6-1.8c-4-1.3-7.2-2.9-9.5-4.9l3.6-8.1c2.2,1.8,5,3.2,8.3,4.4
	c3.3,1.2,6.7,1.8,10.2,1.8c2.9,0,5.3-0.3,7.1-1c1.8-0.6,3.1-1.5,4-2.6c0.9-1.1,1.3-2.4,1.3-3.8c0-1.7-0.6-3.1-1.8-4.1
	c-1.2-1.1-2.8-1.9-4.8-2.5c-1.9-0.6-4.1-1.2-6.5-1.8c-2.3-0.5-4.7-1.1-7.1-1.8c-2.3-0.7-4.5-1.7-6.5-2.8c-1.9-1.2-3.5-2.7-4.7-4.6
	c-1.2-1.9-1.8-4.4-1.8-7.4c0-3,0.8-5.8,2.4-8.3c1.7-2.6,4.1-4.6,7.4-6.1c3.4-1.5,7.6-2.3,12.7-2.3c3.4,0,6.7,0.4,10,1.3
	c3.3,0.9,6.2,2.1,8.6,3.7l-3.3,8.1c-2.5-1.5-5.1-2.6-7.8-3.3c-2.7-0.7-5.2-1.1-7.7-1.1c-2.9,0-5.2,0.3-7,1c-1.8,0.7-3.1,1.6-3.9,2.7
	c-0.8,1.1-1.2,2.4-1.2,3.8c0,1.7,0.6,3.1,1.8,4.2c1.2,1,2.8,1.8,4.7,2.4c2,0.6,4.2,1.2,6.6,1.8c2.4,0.5,4.8,1.1,7.1,1.8
	c2.4,0.7,4.6,1.6,6.5,2.7c2,1.1,3.5,2.6,4.7,4.6c1.2,1.9,1.8,4.3,1.8,7.3c0,3-0.8,5.8-2.5,8.3c-1.6,2.5-4.1,4.5-7.4,6.1
	C428.9,211.2,424.7,212,419.6,212z M464.7,211.2V164h-18.6v-8.8h47.5v8.8h-18.6v47.2H464.7z M512.7,178.5h27.8v8.6h-27.8V178.5z
	 M513.5,202.5h31.6v8.7h-42v-56h40.9v8.7h-30.5V202.5z M558.2,211.2v-56h23c5,0,9.2,0.8,12.7,2.4c3.6,1.6,6.3,3.9,8.2,6.9
	c1.9,3,2.9,6.5,2.9,10.6c0,4.1-1,7.7-2.9,10.6c-1.9,2.9-4.7,5.2-8.2,6.8c-3.5,1.5-7.8,2.3-12.7,2.3H564l4.6-4.7v21H558.2z
	 M594.9,211.2l-14.2-20.3h11.1l14.2,20.3H594.9z M568.6,191.3l-4.6-5h16.8c4.6,0,8-1,10.3-3c2.3-2,3.5-4.7,3.5-8.2
	c0-3.6-1.2-6.3-3.5-8.2c-2.3-1.9-5.7-2.9-10.3-2.9H564l4.6-5.1V191.3z M618.4,211.2v-56h10.4v56H618.4z M645.5,211.2v-56h8.6
	l35.1,43.1H685v-43.1h10.3v56h-8.6l-35.1-43.1h4.2v43.1H645.5z M738,212c-4.4,0-8.4-0.7-12.1-2.1c-3.6-1.4-6.8-3.4-9.5-6
	c-2.7-2.6-4.8-5.7-6.3-9.2c-1.5-3.5-2.2-7.4-2.2-11.5c0-4.2,0.7-8,2.2-11.5c1.5-3.5,3.6-6.6,6.3-9.1c2.8-2.6,6-4.6,9.7-6
	c3.7-1.4,7.7-2.2,12.1-2.2c4.7,0,9,0.8,12.8,2.3c3.8,1.5,7.1,3.8,9.7,6.8l-6.6,6.4c-2.2-2.2-4.6-3.8-7.1-4.8
	c-2.5-1.1-5.3-1.6-8.3-1.6c-2.9,0-5.7,0.5-8.2,1.4c-2.5,1-4.7,2.3-6.5,4.1c-1.8,1.8-3.2,3.8-4.2,6.2c-1,2.4-1.4,5-1.4,7.9
	c0,2.8,0.5,5.4,1.4,7.8c1,2.4,2.4,4.5,4.2,6.3c1.8,1.8,3.9,3.1,6.4,4.1c2.5,1,5.2,1.4,8.2,1.4c2.8,0,5.4-0.4,8-1.3
	c2.6-0.9,5.1-2.4,7.4-4.5l5.9,7.8c-2.9,2.3-6.3,4.1-10.2,5.4C745.9,211.4,742,212,738,212z M750.1,203.5v-21h9.8v22.3L750.1,203.5z"
	/>
<path class="st4" d="M1276.7,233.7c2.6,0,4.8-1.1,4.8-2.5c0-1.4-2.1-2.5-4.8-2.5L1276.7,233.7z M218.5,234.7l1058.2-1l0-5l-1058.2,1
	L218.5,234.7z"/>
<path class="st4" d="M206.4,233.2l12-3.5v5L206.4,233.2z"/>
<path class="st5" d="M18.4,235.2L69.3,214l44.5-10 M113.8,203.9c0,0,26.6,2.7,46.6,5 M113.8,203.9l-8.4-16.7l13-12.1l5,5L142,161
	l64.7,71.3l-27.7,12.5l4.6,5.8l-23.9,3.3L142,238.1 M178.1,244l-19.3-22.1 M45.3,256.5L58.8,269l23.9-18.3l26.9-1.3 M113,244.8
	c-2.2,2.8-3.6,4.4-3.4,8.3c0.8,3.1,2.4,4.2,5,6.7c4.6,1.7,6.7-2.2,9.7-5.4 M123.5,251.9l3.4,1.3h1.7l1.7-0.4l1.3-0.8l1.3-1.7
	l0.4-3.3 M133.1,246.9l-2.1-10.4 M133.1,246.9l3.4,1.7h1.7l2.1-0.8l1.7-0.8l0.8-2.1l-0.8-3.8l-1.3-10.8"/>
<path class="st6" d="M159.6,209.3c5.9-0.2,21.7,12.8,1.3,13"/>
<path class="st6" d="M136.5,222.3h24.8"/>
<path class="st4" d="M131.4,220.5l6-0.5v5l-3.2-1L131.4,220.5z"/>
<path class="st4" d="M110.5,229.5l13,13.4l-3,1.7L110.5,229.5z"/>
<path class="st4" d="M62.2,245.2l-17,14.6l-2.9-2.2L62.2,245.2z"/>
<path class="st4" d="M119.7,221.9l13,14.7l-3.4,0.7L119.7,221.9z"/>
<path class="st4" d="M127.1,217.1l14.8,13.7l-2.9,0.4L127.1,217.1z"/>
<path class="st4" d="M127.1,217.1l14.8,13.7l-2.9,0.4L127.1,217.1z"/>
<path class="st4" d="M128.1,183.7l19.3,23.1l-4,0.3L128.1,183.7z"/>
<path class="st5" d="M121.8,243l2.1,13.4"/>
<path class="st4" d="M115.4,243l-1.2,4l-3.8-1.7L115.4,243z"/>
<rect x="17.4" y="210" class="st1" width="33" height="65"/>
</svg>
