<svg width="46" height="30" viewBox="0 0 46 30" fill="none" xmlns="http://www.w3.org/2000/svg">
<path d="M31.2777 14.6782L42.8944 4.97715V24.2686L31.2777 14.6782ZM16.3089 16.3211L20.3882 19.7248C21.0285 20.2477 21.8632 20.5635 22.7754 20.5635H22.8075H22.832C23.7461 20.5635 24.5809 20.2458 25.2286 19.7194L25.223 19.723L29.3023 16.3193L41.7027 26.5559H3.91419L16.3089 16.3211ZM3.89719 2.67714H41.7253L23.5554 17.846C23.3589 17.9948 23.1097 18.0856 22.8377 18.0856C22.8283 18.0856 22.8207 18.0856 22.8113 18.0856C22.8037 18.0856 22.7962 18.0856 22.7867 18.0856C22.5148 18.0856 22.2636 17.9948 22.0672 17.8442L22.0691 17.846L3.89719 2.67714ZM2.72439 4.97534L14.3391 14.6764L2.72439 24.2613V4.97534ZM43.5176 0.54413C43.0643 0.326292 42.5318 0.199219 41.9671 0.199219H3.65734C3.09077 0.201034 2.55442 0.328107 2.08038 0.556838L2.10116 0.547761C0.93402 1.1087 0.146484 2.24872 0.146484 3.56665V3.57391V25.6628C0.148373 27.5253 1.71967 29.0338 3.65546 29.0356H41.9614C43.8991 29.0338 45.4685 27.5235 45.4704 25.6628V3.57391C45.4704 3.57209 45.4704 3.57028 45.4704 3.56665C45.4704 2.2469 44.6791 1.10325 43.527 0.553207L43.5063 0.54413H43.5176Z" fill="white"/>
</svg>
