<svg width="42" height="41" viewBox="0 0 42 41" fill="none" xmlns="http://www.w3.org/2000/svg">
<path d="M27.3669 20.4822V20.4806C27.3669 16.8539 24.3077 13.9134 20.5347 13.9134C16.7616 13.9134 13.7025 16.8539 13.7025 20.4806C13.7025 24.1073 16.7616 27.0478 20.5347 27.0478C22.4203 27.0478 24.1284 26.3123 25.365 25.1252C26.5999 23.9743 27.3669 22.3637 27.3669 20.5807C27.3669 20.5463 27.3669 20.5118 27.3652 20.4773L27.3669 20.4822ZM31.0562 20.4822C31.0357 26.0299 26.3523 30.5202 20.5774 30.5202C14.7905 30.5202 10.0985 26.0102 10.0985 20.4478C10.0985 14.8853 14.7905 10.3753 20.5774 10.3753C23.4708 10.3753 26.0909 11.5032 27.9869 13.3256C29.8811 15.0988 31.0579 17.573 31.0579 20.3131C31.0579 20.3722 31.0579 20.433 31.0562 20.4921V20.4839V20.4822ZM33.9377 9.96486V9.96814C33.9377 11.2734 32.836 12.3323 31.4781 12.3323C30.1202 12.3323 29.0185 11.2734 29.0185 9.96814C29.0185 8.66291 30.1202 7.60395 31.4781 7.60395C32.1579 7.60395 32.7728 7.86828 33.2169 8.29679C33.6542 8.70888 33.9258 9.28351 33.9258 9.91889V9.9665L33.9377 9.96486ZM20.5466 4.31707L18.5055 4.30393C17.2689 4.29518 16.33 4.29518 15.6889 4.30393C15.0478 4.31269 14.1893 4.33841 13.1132 4.3811C12.114 4.41393 11.166 4.50916 10.2385 4.6602L10.3632 4.64378C9.63731 4.75871 8.99338 4.92289 8.37677 5.14125L8.45022 5.11826C6.66702 5.81603 5.27838 7.14917 4.56953 8.81888L4.55245 8.86321C4.3492 9.3853 4.17839 10.0043 4.06737 10.6413L4.05883 10.702C3.91877 11.472 3.8197 12.3832 3.78725 13.3108L3.78554 13.3453C3.74113 14.3808 3.71437 15.206 3.70526 15.8212C3.69615 16.4363 3.69615 17.3387 3.70526 18.5285C3.71437 19.7183 3.71893 20.3722 3.71893 20.4904C3.71893 20.6087 3.71437 21.2626 3.70526 22.4524C3.69615 23.6422 3.69615 24.5446 3.70526 25.1597C3.71437 25.7749 3.74113 26.6001 3.78554 27.6356C3.8197 28.596 3.91877 29.5072 4.07591 30.3987L4.05883 30.2789C4.17839 30.9766 4.3492 31.5956 4.57637 32.1883L4.55245 32.1177C5.27837 33.8317 6.66531 35.1665 8.4024 35.8478L8.44851 35.8643C8.99167 36.0596 9.63561 36.2238 10.2983 36.3305L10.3615 36.3387C11.1626 36.4734 12.1106 36.5686 13.0739 36.5998L13.1098 36.6014C14.187 36.6441 15.0456 36.6698 15.6855 36.6786C16.3255 36.6874 17.2643 36.6874 18.5021 36.6786L20.5312 36.6392L22.5724 36.6523C23.809 36.6611 24.7479 36.6611 25.3889 36.6523C26.03 36.6436 26.8886 36.6179 27.9647 36.5752C28.9639 36.5423 29.9119 36.4471 30.8393 36.2961L30.7146 36.3125C31.4406 36.1976 32.0845 36.0334 32.7011 35.815L32.6276 35.838C34.4109 35.1402 35.7995 33.8071 36.5083 32.1374L36.5254 32.0931C36.7287 31.571 36.8995 30.952 37.0105 30.315L37.019 30.2542C37.1591 29.4842 37.2582 28.573 37.2906 27.6471L37.2923 27.6126C37.3367 26.5771 37.3635 25.7519 37.3726 25.1367C37.3817 24.5216 37.3817 23.6192 37.3726 22.4294C37.3635 21.2397 37.3589 20.5857 37.3589 20.4675C37.3589 20.3492 37.3635 19.6953 37.3726 18.5055C37.3817 17.3157 37.3817 16.4133 37.3726 15.7982C37.3635 15.183 37.3367 14.3578 37.2923 13.3223C37.2582 12.3619 37.1591 11.4507 37.002 10.5592L37.019 10.679C36.8995 9.98128 36.7287 9.36232 36.5015 8.76963L36.5254 8.84023C35.7995 7.12619 34.4126 5.7914 32.6755 5.11006L32.6294 5.09364C32.0862 4.89826 31.4423 4.73408 30.7795 4.62737L30.7163 4.61916C29.9153 4.48453 28.9673 4.3893 28.004 4.35811L27.9681 4.35647C26.8909 4.31378 26.0323 4.28806 25.3924 4.2793C24.7524 4.27055 23.8135 4.27055 22.5758 4.2793L20.5466 4.31707ZM41.0312 20.4822C41.0312 24.3985 40.9857 27.1091 40.8946 28.6141C40.9031 28.7799 40.91 28.9736 40.91 29.1674C40.91 35.1878 35.8319 40.0689 29.5685 40.0689C29.3653 40.0689 29.1637 40.064 28.9639 40.0541L28.9912 40.0558C27.4255 40.1433 24.6055 40.1871 20.5312 40.1871C16.457 40.1871 13.637 40.1433 12.0713 40.0558C11.8988 40.064 11.6972 40.0706 11.4957 40.0706C5.23226 40.0706 0.154229 35.1895 0.154229 29.169C0.154229 28.9736 0.159354 28.7799 0.169602 28.5878L0.167894 28.6141C0.076798 27.1091 0.03125 24.3985 0.03125 20.4822C0.03125 16.566 0.076798 13.8554 0.167894 12.3504C0.159354 12.1846 0.152521 11.9908 0.152521 11.7971C0.152521 5.77663 5.23055 0.895553 11.494 0.895553C11.6972 0.895553 11.8988 0.900479 12.0986 0.91033L12.0713 0.908688C13.637 0.821125 16.457 0.777344 20.5312 0.777344C24.6055 0.777344 27.4255 0.821125 28.9912 0.908688C29.1637 0.900479 29.3653 0.893912 29.5668 0.893912C35.8302 0.893912 40.9083 5.77498 40.9083 11.7955C40.9083 11.9908 40.9031 12.1846 40.8929 12.3767L40.8946 12.3504C40.9857 13.8543 41.0312 16.5649 41.0312 20.4822Z" fill="white"/>
</svg>
