<svg width="44" height="43" viewBox="0 0 44 43" fill="none" xmlns="http://www.w3.org/2000/svg">
<path d="M27.9987 23.571C29.0583 23.897 29.975 24.3041 30.8275 24.8046L30.7707 24.7728C31.7405 25.187 32.5783 25.6716 33.3428 26.2408L33.3153 26.2214C33.352 26.3289 33.374 26.4505 33.374 26.5791C33.374 26.5985 33.374 26.6161 33.3722 26.6355V26.6337C33.3447 27.3897 33.1705 28.0999 32.8753 28.7467L32.89 28.7096C32.4665 29.5256 31.7607 30.1547 30.8972 30.4895L30.8715 30.4983C30.03 30.9265 29.0363 31.1909 27.9822 31.2226H27.9712C25.9545 30.9653 24.1322 30.3697 22.4932 29.4921L22.572 29.5308C20.6983 28.7061 19.0978 27.6224 17.7393 26.3077L17.7375 26.306C16.2268 24.7957 14.8427 23.1428 13.6162 21.3823L13.53 21.2519C12.364 19.791 11.6215 17.9636 11.5133 15.974L11.5115 15.9511V15.7326C11.5702 14.0144 12.3695 12.4848 13.6088 11.4204L13.6143 11.4152C13.9938 11.0521 14.5145 10.8248 15.0902 10.8142H15.092C15.2772 10.8195 15.455 10.8336 15.6273 10.8583L15.6035 10.8548C15.763 10.8777 15.9482 10.8918 16.1388 10.8953H16.1443C16.1792 10.8918 16.2177 10.89 16.258 10.89C16.4963 10.89 16.7182 10.9587 16.9033 11.0751L16.8997 11.0733C17.0958 11.2812 17.2462 11.5332 17.336 11.8099L17.3397 11.824C17.4912 12.1882 17.8041 12.9894 18.2783 14.2277C18.5258 14.781 18.7678 15.463 18.9622 16.1644L18.9878 16.2754C18.8485 16.9115 18.4965 17.4525 18.0107 17.842L18.0052 17.8455C17.3513 18.5105 17.0243 18.9334 17.0243 19.1143C17.0317 19.2694 17.0867 19.4104 17.1728 19.5267L17.171 19.5249C17.9135 20.9858 18.887 22.2264 20.0603 23.2591L20.0695 23.2679C21.307 24.3411 22.7205 25.2627 24.2532 25.9817L24.3613 26.0275C24.5392 26.1386 24.7518 26.2091 24.9828 26.2196H24.9865C25.2713 26.2196 25.7834 25.7779 26.5228 24.8944C27.2623 24.011 27.7536 23.5692 27.9968 23.5692L27.9987 23.571ZM22.2292 38.0494H22.2695C24.7573 38.0494 27.1223 37.5472 29.2618 36.6414L29.15 36.6837C33.4693 34.9321 36.8372 31.6949 38.6155 27.6541L38.6595 27.5431C39.5578 25.5817 40.0803 23.2943 40.0803 20.8907C40.0803 18.487 39.5578 16.1996 38.6155 14.129L38.6595 14.2382C36.8372 10.0864 33.4693 6.84924 29.2655 5.13988L29.15 5.09758C27.1095 4.23409 24.7298 3.73186 22.2292 3.73186C19.7285 3.73186 17.3488 4.23409 15.1947 5.13988L15.3083 5.09758C10.989 6.84924 7.62117 10.0864 5.84283 14.1272L5.79883 14.2382C4.9005 16.2067 4.378 18.5011 4.378 20.9118C4.378 24.6847 5.65767 28.1722 7.82283 30.9917L7.788 30.9459L5.54217 37.3128L12.4208 35.2087C15.1525 36.9886 18.5203 38.0494 22.1467 38.0494H22.2328H22.2292ZM22.2292 0.291992H22.2897C25.2743 0.291992 28.1123 0.894673 30.6772 1.98197L30.5433 1.93086C35.7225 4.04025 39.7613 7.92243 41.9027 12.7668L41.9558 12.9007C43.0338 15.2568 43.6608 18.0041 43.6608 20.8924C43.6608 23.7807 43.0338 26.528 41.9027 29.0145L41.9558 28.8841C39.7613 33.8624 35.7225 37.7446 30.6827 39.8029L30.5433 39.854C28.1105 40.8902 25.2725 41.4928 22.2878 41.4928C22.2677 41.4928 22.2457 41.4928 22.2255 41.4928H22.2292C22.1998 41.4928 22.1668 41.4928 22.132 41.4928C18.3572 41.4928 14.8133 40.5395 11.748 38.8706L11.8525 38.9235L0 42.5854L3.8665 31.5204C1.93967 28.4999 0.7975 24.8433 0.7975 20.9294C0.7975 18.0288 1.4245 15.2692 2.55567 12.7686L2.5025 12.9007C4.697 7.92243 8.73583 4.04025 13.7757 1.98197L13.915 1.93086C16.3478 0.894673 19.1858 0.291992 22.1705 0.291992H22.231L22.2292 0.291992Z" fill="white"/>
</svg>
