<?xml version="1.0" encoding="UTF-8"?><svg id="uuid-85bcd487-294a-40dc-976c-89528cd28a2a" xmlns="http://www.w3.org/2000/svg" xmlns:xlink="http://www.w3.org/1999/xlink" viewBox="0 0 308.82 125.28"><defs><style>.uuid-176776b6-1321-4452-a824-2324ddd237a8{fill:#6d7277;}.uuid-3fb2f039-3fe3-4f87-ab71-61b7de81739e{fill:#fff;}.uuid-1fd371a3-19f0-498d-9fa6-22da6022eb54{fill:url(#uuid-a5d93e2a-f9be-44a5-8cc9-f64c45a7956d);}.uuid-626bf3c7-8beb-4494-953c-3fb26b68711e{fill:url(#uuid-c6ded5b9-2979-4c7c-9fbb-188df39c02d3);}.uuid-75cfaac8-c384-4be9-b67a-e10be5a43b8d{fill:url(#uuid-5441c669-00dd-41f8-beb0-4b9d333064c2);}.uuid-0c67bccd-5115-4d4f-9c85-83bef111a7b0{fill:#77797c;}.uuid-df117dd2-3dd3-4f42-9d74-88d4acff14f4{fill:#939598;font-family:Montserrat-Bold, Montserrat;font-size:13.09px;font-weight:700;}.uuid-dd370777-c664-46e9-be33-a94bb15a5247{fill:url(#uuid-43a7e85c-e5b7-44b7-a290-895d7da86598);}.uuid-aa74b375-3311-4290-8ad6-52f8f5a74711{fill:#e63341;}.uuid-44d91b94-dfdf-4b00-a130-58b3e80533ec{fill:url(#uuid-0c74d763-546b-478a-ba70-208f38911378);}.uuid-6b23b69f-ac21-41a3-a022-709331575756{fill:url(#uuid-06bd244f-6860-466d-8f76-78d4958ec315);}.uuid-36cd79c2-34d2-4fa1-a81a-b130ef10867e{fill:url(#uuid-aa8147f1-cce6-4bc9-9a04-d00b97febbf4);}.uuid-08167824-9a73-451b-a540-579aae068a33{fill:none;opacity:.25;}.uuid-a077eef2-feb9-463c-a870-1d4362939b71{fill:#e22935;}.uuid-9cb3da17-79cb-4c09-b44c-544e51273811{fill:url(#uuid-bbafc8d6-af57-4c3f-8907-6d04516cfc7e);}</style><linearGradient id="uuid-c6ded5b9-2979-4c7c-9fbb-188df39c02d3" x1="185.58" y1="87.5" x2="185.58" y2="46.6" gradientUnits="userSpaceOnUse"><stop offset="0" stop-color="#6d7277"/><stop offset=".2" stop-color="#71767b"/><stop offset=".44" stop-color="#7f8387"/><stop offset=".68" stop-color="#96989c"/><stop offset=".94" stop-color="#b5b6b9"/><stop offset="1" stop-color="#bfbfc2"/></linearGradient><linearGradient id="uuid-5441c669-00dd-41f8-beb0-4b9d333064c2" x1="202.97" x2="202.97" xlink:href="#uuid-c6ded5b9-2979-4c7c-9fbb-188df39c02d3"/><linearGradient id="uuid-bbafc8d6-af57-4c3f-8907-6d04516cfc7e" x1="227.05" y1="87.83" x2="227.05" y2="57.3" xlink:href="#uuid-c6ded5b9-2979-4c7c-9fbb-188df39c02d3"/><linearGradient id="uuid-0c74d763-546b-478a-ba70-208f38911378" x1="261.32" y1="87.83" x2="261.32" y2="57.3" xlink:href="#uuid-c6ded5b9-2979-4c7c-9fbb-188df39c02d3"/><linearGradient id="uuid-43a7e85c-e5b7-44b7-a290-895d7da86598" x1="292.06" x2="292.06" y2="57.63" xlink:href="#uuid-c6ded5b9-2979-4c7c-9fbb-188df39c02d3"/><linearGradient id="uuid-a5d93e2a-f9be-44a5-8cc9-f64c45a7956d" x1="150.38" x2="150.38" y2="57.63" xlink:href="#uuid-c6ded5b9-2979-4c7c-9fbb-188df39c02d3"/><linearGradient id="uuid-aa8147f1-cce6-4bc9-9a04-d00b97febbf4" x1="79.37" x2="79.37" y2="46.6" xlink:href="#uuid-c6ded5b9-2979-4c7c-9fbb-188df39c02d3"/><linearGradient id="uuid-06bd244f-6860-466d-8f76-78d4958ec315" x1="111.68" x2="111.68" y2="57.63" xlink:href="#uuid-c6ded5b9-2979-4c7c-9fbb-188df39c02d3"/></defs><text class="uuid-df117dd2-3dd3-4f42-9d74-88d4acff14f4" transform="translate(78.47 105.27)"><tspan x="0" y="0">By</tspan></text><g class="uuid-08167824-9a73-451b-a540-579aae068a33"><path class="uuid-626bf3c7-8beb-4494-953c-3fb26b68711e" d="m185.54,47.17c-1.22.38-2.21.95-2.97,1.71-1.52,1.54-2.28,4.02-2.28,7.43v1.32h-5.27v4.7h5.27v25.17h5.93v-25.17h9.41v-4.7h-9.41v-1.65c0-1.9.31-3.15.93-3.76.62-.61,1.83-.91,3.63-.91h5.36v-4.7h-6.14c-1.76,0-3.25.19-4.47.57Z"/><rect class="uuid-75cfaac8-c384-4be9-b67a-e10be5a43b8d" x="200" y="46.6" width="5.93" height="40.9"/><path class="uuid-9cb3da17-79cb-4c09-b44c-544e51273811" d="m227.38,57.3c-2.64,0-4.93.37-6.88,1.11-1.95.74-3.56,1.82-4.84,3.24-2.58,2.92-3.87,6.73-3.87,11.45s1.15,7.97,3.45,10.43c2.7,2.88,6.63,4.32,11.81,4.32s8.75-1.41,11.45-4.23c2.54-2.68,3.81-6.31,3.81-10.91,0-4.91-1.25-8.67-3.75-11.27-2.68-2.76-6.4-4.13-11.18-4.13Zm-.48,25.62c-3.08,0-5.42-1.01-7.04-3.03-1.28-1.6-1.92-4-1.92-7.19,0-3.38.78-5.97,2.35-7.78,1.57-1.81,3.81-2.71,6.73-2.71,1.48,0,2.78.24,3.91.7,1.13.47,2.08,1.16,2.86,2.08,1.58,1.82,2.37,4.44,2.37,7.85,0,6.71-3.09,10.07-9.26,10.07Z"/><path class="uuid-44d91b94-dfdf-4b00-a130-58b3e80533ec" d="m261.65,57.3c-2.64,0-4.93.37-6.88,1.11-1.95.74-3.56,1.82-4.84,3.24-2.58,2.92-3.87,6.73-3.87,11.45s1.15,7.97,3.45,10.43c2.7,2.88,6.63,4.32,11.81,4.32s8.75-1.41,11.45-4.23c2.54-2.68,3.81-6.31,3.81-10.91,0-4.91-1.25-8.67-3.75-11.27-2.68-2.76-6.4-4.13-11.18-4.13Zm-.48,25.62c-3.08,0-5.42-1.01-7.04-3.03-1.28-1.6-1.92-4-1.92-7.19,0-3.38.78-5.97,2.35-7.78,1.57-1.81,3.81-2.71,6.73-2.71,1.48,0,2.78.24,3.91.7,1.13.47,2.08,1.16,2.86,2.08,1.58,1.82,2.37,4.44,2.37,7.85,0,6.71-3.09,10.07-9.26,10.07Z"/><path class="uuid-dd370777-c664-46e9-be33-a94bb15a5247" d="m301.16,62.93c-.36-1.22-1-2.24-1.92-3.06-.92-.82-2.06-1.4-3.42-1.74-.7-.18-1.52-.31-2.47-.39-.95-.08-2.03-.12-3.25-.12h-7.67v29.88h5.93v-24.9h2.37c2.1,0,3.52.39,4.26,1.17s1.11,2.26,1.11,4.44v2.91h5.6v-2.91c0-2.3-.18-4.06-.54-5.27Z"/><path class="uuid-1fd371a3-19f0-498d-9fa6-22da6022eb54" d="m167.52,59.75c-1.11-.92-2.28-1.5-3.52-1.74-.68-.14-1.62-.24-2.82-.3-1.2-.06-2.71-.09-4.53-.09h-26.4v29.88h5.93v-25.17h11.03v25.17h5.93v-25.17h4.62c2.52,0,4.28.5,5.29,1.5,1.01,1,1.51,2.74,1.51,5.21v18.46h5.93v-18.46c0-2.52-.22-4.47-.66-5.84-.44-1.38-1.21-2.53-2.32-3.45Z"/><path class="uuid-36cd79c2-34d2-4fa1-a81a-b130ef10867e" d="m72.05,48.43c-2.51,1.22-4.57,3.32-6.19,6.29-1.98,3.66-2.97,7.86-2.97,12.62,0,4,.73,7.6,2.19,10.82,2.04,4.44,5.17,7.25,9.41,8.45,2.16.6,5.04.9,8.66.9h12.71v-5.21h-12.17c-2.82,0-4.97-.23-6.46-.69-1.49-.46-2.77-1.3-3.85-2.52-2.36-2.68-3.54-6.53-3.54-11.57,0-2.7.31-5.17.93-7.43.62-2.26,1.46-4.01,2.52-5.24.98-1.16,2.17-1.95,3.57-2.38,1.4-.43,3.5-.64,6.29-.64h12.71v-5.21h-13.07c-4.66,0-8.24.61-10.74,1.83Z"/><path class="uuid-6b23b69f-ac21-41a3-a022-709331575756" d="m106.03,59.69c-4.32,2.64-6.47,7.12-6.47,13.46,0,5.21,1.42,9.1,4.26,11.66,1.12,1.02,2.38,1.72,3.79,2.11s3.4.58,5.98.58h10.22v-4.7h-8.6c-1.98,0-3.51-.15-4.58-.45-1.08-.3-1.97-.82-2.67-1.56-1.38-1.46-2.07-3.55-2.07-6.26h17.92v-4.7h-17.92c.38-2.36,1.19-4.14,2.43-5.33.82-.82,1.8-1.38,2.94-1.69,1.14-.31,2.75-.46,4.82-.46h7.73v-4.7h-8.6c-3.86,0-6.91.69-9.17,2.07Z"/></g><path class="uuid-aa74b375-3311-4290-8ad6-52f8f5a74711" d="m179.38,61.45h-5.27v-4.7h5.27v-1.32c0-3.42.76-5.89,2.28-7.43.76-.76,1.75-1.33,2.97-1.71,1.22-.38,2.71-.57,4.47-.57h6.14v4.7h-5.36c-1.8,0-3.01.3-3.63.91-.62.61-.93,1.86-.93,3.76v1.65h9.41v4.7h-9.41v25.17h-5.93v-25.17Z"/><path class="uuid-aa74b375-3311-4290-8ad6-52f8f5a74711" d="m205.02,86.62h-5.93v-40.9h5.93v40.9Z"/><path class="uuid-aa74b375-3311-4290-8ad6-52f8f5a74711" d="m226.46,56.41c4.77,0,8.5,1.38,11.18,4.13,2.5,2.6,3.75,6.35,3.75,11.27,0,4.6-1.27,8.23-3.81,10.91-2.7,2.82-6.51,4.23-11.45,4.23s-9.11-1.44-11.81-4.32c-2.3-2.46-3.45-5.93-3.45-10.43,0-4.72,1.29-8.53,3.87-11.45,1.28-1.42,2.89-2.5,4.84-3.24,1.95-.74,4.24-1.11,6.88-1.11Zm-.36,4.91c-2.92,0-5.16.9-6.73,2.71-1.57,1.81-2.35,4.4-2.35,7.78,0,3.2.64,5.59,1.92,7.19,1.62,2.02,3.97,3.03,7.04,3.03,6.17,0,9.26-3.36,9.26-10.07,0-3.42-.79-6.03-2.37-7.85-.78-.92-1.73-1.61-2.86-2.08s-2.43-.7-3.91-.7Z"/><path class="uuid-aa74b375-3311-4290-8ad6-52f8f5a74711" d="m260.73,56.41c4.77,0,8.5,1.38,11.18,4.13,2.5,2.6,3.75,6.35,3.75,11.27,0,4.6-1.27,8.23-3.81,10.91-2.7,2.82-6.51,4.23-11.45,4.23s-9.11-1.44-11.81-4.32c-2.3-2.46-3.45-5.93-3.45-10.43,0-4.72,1.29-8.53,3.87-11.45,1.28-1.42,2.89-2.5,4.84-3.24,1.95-.74,4.24-1.11,6.88-1.11Zm-.36,4.91c-2.92,0-5.16.9-6.73,2.71-1.57,1.81-2.35,4.4-2.35,7.78,0,3.2.64,5.59,1.92,7.19,1.62,2.02,3.97,3.03,7.04,3.03,6.17,0,9.26-3.36,9.26-10.07,0-3.42-.79-6.03-2.37-7.85-.78-.92-1.73-1.61-2.86-2.08s-2.43-.7-3.91-.7Z"/><path class="uuid-aa74b375-3311-4290-8ad6-52f8f5a74711" d="m281.52,56.74h7.67c1.22,0,2.3.04,3.25.12.95.08,1.77.21,2.47.39,1.36.34,2.5.92,3.42,1.74.92.82,1.56,1.84,1.92,3.06.36,1.22.54,2.98.54,5.27v2.91h-5.6v-2.91c0-2.18-.37-3.66-1.11-4.44s-2.16-1.17-4.26-1.17h-2.37v24.9h-5.93v-29.88Z"/><path class="uuid-176776b6-1321-4452-a824-2324ddd237a8" d="m166.61,58.87c-1.11-.92-2.28-1.5-3.52-1.74-.68-.14-1.62-.24-2.82-.3-1.2-.06-2.71-.09-4.53-.09h-26.4v29.88h5.93v-25.17h11.03v25.17h5.93v-25.17h4.62c2.52,0,4.28.5,5.29,1.5,1.01,1,1.51,2.74,1.51,5.21v18.46h5.93v-18.46c0-2.52-.22-4.47-.66-5.84-.44-1.38-1.21-2.53-2.32-3.45Z"/><path class="uuid-176776b6-1321-4452-a824-2324ddd237a8" d="m71.13,47.54c-2.51,1.22-4.57,3.32-6.19,6.29-1.98,3.66-2.97,7.86-2.97,12.62,0,4,.73,7.6,2.19,10.82,2.04,4.44,5.17,7.25,9.41,8.45,2.16.6,5.04.9,8.66.9h12.71v-5.21h-12.17c-2.82,0-4.97-.23-6.46-.69-1.49-.46-2.77-1.3-3.85-2.52-2.36-2.68-3.54-6.53-3.54-11.57,0-2.7.31-5.17.93-7.43.62-2.26,1.46-4.01,2.52-5.24.98-1.16,2.17-1.95,3.57-2.38,1.4-.43,3.5-.64,6.29-.64h12.71v-5.21h-13.07c-4.66,0-8.24.61-10.74,1.83Z"/><path class="uuid-176776b6-1321-4452-a824-2324ddd237a8" d="m105.12,58.81c-4.32,2.64-6.47,7.12-6.47,13.46,0,5.21,1.42,9.1,4.26,11.66,1.12,1.02,2.38,1.72,3.79,2.11,1.41.39,3.4.58,5.98.58h10.22v-4.7h-8.6c-1.98,0-3.51-.15-4.58-.45-1.08-.3-1.97-.82-2.67-1.56-1.38-1.46-2.07-3.55-2.07-6.26h17.92v-4.7h-17.92c.38-2.36,1.19-4.14,2.43-5.33.82-.82,1.8-1.38,2.94-1.69,1.14-.31,2.75-.46,4.82-.46h7.73v-4.7h-8.6c-3.86,0-6.91.69-9.17,2.07Z"/><ellipse class="uuid-a077eef2-feb9-463c-a870-1d4362939b71" cx="116.56" cy="101.38" rx="16.33" ry="9.65"/><path class="uuid-3fb2f039-3fe3-4f87-ab71-61b7de81739e" d="m116.56,92.19c8.77,0,15.87,4.11,15.87,9.19s-7.11,9.19-15.87,9.19-15.87-4.11-15.87-9.19,7.11-9.19,15.87-9.19m0-.92c-9.41,0-16.79,4.44-16.79,10.11s7.37,10.11,16.79,10.11,16.79-4.44,16.79-10.11-7.37-10.11-16.79-10.11h0Z"/><path class="uuid-3fb2f039-3fe3-4f87-ab71-61b7de81739e" d="m105.66,98.65h2.63l1.94,3.6,1.94-3.6h2.63v5.59h-1.67v-4.01h-.02l-2.25,4.01h-1.28l-2.25-4.01h-.02v4.01h-1.67v-5.59Z"/><path class="uuid-3fb2f039-3fe3-4f87-ab71-61b7de81739e" d="m115.64,99.56c0-.95.54-1.18,1.44-1.18h1.17c1.42,0,1.61.31,1.6,1.23h-1v-.09c0-.23-.17-.3-.47-.3h-1.09c-.53,0-.63.25-.63.65v.35c0,.47.1.65.57.65h1.07c.45,0,.58-.05.58-.45h1v.31c0,.55-.2.98-1.2.98h-1.61c-.9,0-1.44-.23-1.44-1.18v-.97Z"/><path class="uuid-3fb2f039-3fe3-4f87-ab71-61b7de81739e" d="m120.61,100.62c0-1.64.92-2.02,2.46-2.02h2.58c1.94,0,2.21.7,2.21,1.79v.18h-1.68c0-.56-.32-.63-.86-.63h-1.86c-.86,0-1.09.21-1.09,1.17v.69c0,.96.22,1.17,1.09,1.17h1.83c.45,0,.9-.07.9-.61v-.16h-2.13v-1.16h3.84v1.59c0,1.61-.83,1.68-2.76,1.68h-2.06c-1.54,0-2.46-.39-2.46-2.02v-1.67Z"/><path class="uuid-176776b6-1321-4452-a824-2324ddd237a8" d="m137.75,97.12h3.08l2.27,4.57,2.27-4.57h3.08v7.1h-1.95v-5.1h-.02l-2.63,5.1h-1.5l-2.63-5.1h-.02v5.1h-1.95v-7.1Z"/><path class="uuid-176776b6-1321-4452-a824-2324ddd237a8" d="m149.45,98.27c0-1.21.63-1.5,1.68-1.5h1.38c1.67,0,1.88.39,1.87,1.56h-1.17v-.11c0-.3-.2-.38-.55-.38h-1.28c-.62,0-.73.31-.73.83v.45c0,.6.12.83.67.83h1.25c.53,0,.69-.06.69-.57h1.17v.39c0,.7-.23,1.25-1.41,1.25h-1.89c-1.06,0-1.68-.29-1.68-1.5v-1.24Z"/><path class="uuid-176776b6-1321-4452-a824-2324ddd237a8" d="m155.28,99.61c0-2.08,1.08-2.57,2.89-2.57h3.02c2.28,0,2.6.89,2.6,2.27v.23h-1.97c0-.71-.37-.79-1.01-.79h-2.18c-1.01,0-1.28.26-1.28,1.48v.88c0,1.22.26,1.48,1.28,1.48h2.14c.52,0,1.05-.09,1.05-.77v-.21h-2.5v-1.47h4.5v2.02c0,2.04-.98,2.14-3.24,2.14h-2.41c-1.81,0-2.89-.49-2.89-2.57v-2.12Z"/><path class="uuid-176776b6-1321-4452-a824-2324ddd237a8" d="m165.03,97.12h6.06c1.55,0,1.96.83,1.96,2.11v.45c0,.95-.2,1.51-1.12,1.75v.02c.6.12,1.09.4,1.09,1.57v1.21h-2.01v-.85c0-.74-.2-.99-.82-.99h-3.16v1.84h-2.01v-7.1Zm2.01,3.49h3.32c.54,0,.74-.24.74-.75v-.24c0-.63-.29-.75-.92-.75h-3.14v1.73Z"/><path class="uuid-176776b6-1321-4452-a824-2324ddd237a8" d="m177.32,97.12h2.61l3.6,7.1h-2.23l-.62-1.26h-4.07l-.59,1.26h-2.24l3.55-7.1Zm.04,4.31h2.57l-1.3-2.67-1.27,2.67Z"/><path class="uuid-176776b6-1321-4452-a824-2324ddd237a8" d="m183.1,97.12h7.65v1.77h-2.82v5.33h-2.01v-5.33h-2.82v-1.77Z"/><path class="uuid-176776b6-1321-4452-a824-2324ddd237a8" d="m191.63,97.12h2.01v2.53h4.23v-2.53h2.01v7.1h-2.01v-2.69h-4.23v2.69h-2.01v-7.1Z"/><path class="uuid-176776b6-1321-4452-a824-2324ddd237a8" d="m201.12,101.9h2.01c0,.76.29.81.87.81h2.46c.42,0,.86-.05.86-.6,0-.62-.24-.66-2.82-.66-3.02,0-3.36-.39-3.36-2.14,0-1.28.11-2.27,2.64-2.27h2.8c2.32,0,2.53.85,2.53,2.1v.23h-2.01c0-.52-.05-.74-.98-.74h-2.22c-.45,0-.76.17-.76.55,0,.62.24.64,2.4.63,3.12,0,3.84.2,3.84,2.26,0,1.91-.6,2.23-3.27,2.23h-2.43c-1.83,0-2.56-.37-2.56-1.91v-.49Z"/><path class="uuid-0c67bccd-5115-4d4f-9c85-83bef111a7b0" d="m215.67,99.6c0-2.05,1.06-2.53,2.84-2.53h2.32c2.81,0,3.18.66,3.16,2.64h-1.98v-.19c0-.5-.34-.65-.93-.65h-2.16c-1.04,0-1.24.53-1.24,1.4v.75c0,1.01.2,1.4,1.13,1.4h2.11c.89,0,1.16-.1,1.16-.97h1.98v.66c0,1.18-.39,2.1-2.38,2.1h-3.19c-1.78,0-2.84-.48-2.84-2.53v-2.09Z"/><path class="uuid-0c67bccd-5115-4d4f-9c85-83bef111a7b0" d="m225.12,99.6c0-2.05,1.06-2.53,2.84-2.53h3.17c1.78,0,2.84.48,2.84,2.53v2.09c0,2.05-1.06,2.53-2.84,2.53h-3.17c-1.78,0-2.84-.48-2.84-2.53v-2.09Zm2.03,1.42c0,1.01.2,1.4,1.13,1.4h2.53c.94,0,1.13-.39,1.13-1.4v-.75c0-.87-.2-1.4-1.24-1.4h-2.32c-1.04,0-1.24.53-1.24,1.4v.75Z"/><path class="uuid-0c67bccd-5115-4d4f-9c85-83bef111a7b0" d="m235.16,97.15h3.06l3.71,5.08h.02v-5.08h1.98v6.99h-3.06l-3.71-5.08h-.02v5.08h-1.98v-6.99Z"/><path class="uuid-0c67bccd-5115-4d4f-9c85-83bef111a7b0" d="m245.12,99.6c0-2.05,1.06-2.53,2.84-2.53h2.97c2.24,0,2.56.88,2.56,2.24v.22h-1.94c0-.7-.37-.78-1-.78h-2.15c-1,0-1.26.26-1.26,1.46v.87c0,1.2.26,1.46,1.26,1.46h2.11c.52,0,1.03-.09,1.03-.76v-.2h-2.46v-1.45h4.43v1.99c0,2.01-.96,2.1-3.19,2.1h-2.38c-1.78,0-2.84-.48-2.84-2.53v-2.09Z"/><path class="uuid-176776b6-1321-4452-a824-2324ddd237a8" d="m18.91,61.66C21.37,24.02,100.91,1.2,196.57,10.7c38.91,3.86,74.5,12.48,102.86,23.88-30.57-15.59-73.6-27.65-121.72-32.43C82.04-7.35,2.5,15.48.04,53.15c-1.47,22.42,36.54,52.43,78.14,69.07-30.45-15.43-60.49-41.76-59.27-60.55Z"/><path class="uuid-aa74b375-3311-4290-8ad6-52f8f5a74711" d="m41.59,69.53c2.18-34.45,77.88-55.77,169.1-47.63,37.11,3.31,71.06,10.99,98.14,21.26-29.21-14.09-70.27-24.87-116.16-28.97C101.45,6.05,25.74,27.39,23.56,61.85c-1.3,20.51,35.58,48.44,75.3,63.43-29.09-13.94-58.37-38.55-57.28-55.75Z"/></svg>